<?xml version="1.0" standalone="no"?>
<!DOCTYPE svg PUBLIC "-//W3C//DTD SVG 1.1//EN" "http://www.w3.org/Graphics/SVG/1.1/DTD/svg11.dtd" >
<svg xmlns="http://www.w3.org/2000/svg">
<metadata>Generated by IcoMoon</metadata>
<defs>
<font id="icomoon" horiz-adv-x="1024">
<font-face units-per-em="1024" ascent="960" descent="-64" />
<missing-glyph horiz-adv-x="1024" />
<glyph unicode="&#x20;" horiz-adv-x="512" d="" />
<glyph unicode="&#xe900;" glyph-name="card2" d="M912.696 804.174h-801.391c-61.391 0-111.304-49.913-111.304-111.304v-489.739c0-61.391 49.913-111.304 111.304-111.304h801.391c61.391 0 111.304 49.913 111.304 111.304v489.739c0 61.391-49.913 111.304-111.304 111.304zM512 425.739h-356.174v44.522h356.174zM979.478 537.044h-934.956v111.304h934.956z" />
<glyph unicode="&#xe901;" glyph-name="card" d="M111.304 804.174c-61.217 0-111.304-50.087-111.304-111.304v-489.739c0-61.217 50.087-111.304 111.304-111.304h801.391c61.217 0 111.304 50.087 111.304 111.304v489.739c0 61.217-50.087 111.304-111.304 111.304zM111.304 759.652h801.391c37.13 0 66.783-29.652 66.783-66.783v-44.522h-934.956v44.522c0 37.13 29.652 66.783 66.783 66.783zM44.522 537.043h934.956v-333.913c0-37.13-29.652-66.783-66.783-66.783h-801.391c-37.13 0-66.783 29.652-66.783 66.783zM155.826 470.261v-44.522h356.174v44.522z" />
<glyph unicode="&#xe902;" glyph-name="email2" d="M0 816.64v-56.96c61.68-53.68 415.52-362.16 443.52-386.56 28.8-25.12 57.52-27.52 68.48-27.52s39.68 2.4 68.48 27.52c29.040 25.28 403.52 351.76 443.52 386.56v56.96zM0 705.28v-513.92l309.76 244.48c-100.4 87.36-243.6 211.84-309.76 269.44zM1024 705.28c-62.48-54.4-207.92-180.8-309.76-269.44l309.76-243.84zM341.12 408.32l-341.12-268.8v-60.16h1024v60.8l-341.12 268.16c-39.68-34.56-68.24-59.6-75.52-65.92-39.28-34.16-79.84-37.76-95.36-37.76s-56.080 3.52-95.36 37.76c-7.2 6.24-35.76 31.28-75.52 65.92z" />
<glyph unicode="&#xe903;" glyph-name="email" d="M0 816.64v-737.28h1024v737.28zM40.96 775.68h942.080v-51.2c-8-6.96-367.12-320.24-400.64-349.44l-1.92-1.92c-26.56-23.12-53.76-27.52-68.48-27.52-14.64 0-41.92 4.4-68.48 27.52-7.6 6.64-62.32 53.92-101.76 88.32-117.040 102.080-294.8 257.76-300.8 263.040zM40.96 670.080c35.52-30.96 161.52-140.64 268.8-234.24l-268.8-212.48zM983.040 670.080v-446.72l-268.8 212.48c107.28 93.6 233.28 203.28 268.8 234.24zM341.12 408.32c24.88-21.68 69.84-60.96 75.52-65.92l0.64-0.64c34.64-29.76 71.44-37.12 94.72-37.12 23.44 0 60.56 7.44 95.36 37.76 5.76 4.96 51.040 44 76.16 65.92l299.52-236.8v-51.2h-942.080v51.2z" />
<glyph unicode="&#xe904;" glyph-name="location2" d="M512 960c-188.599 0-341.361-152.762-341.361-341.361 0-155.929 82.34-323.526 163.347-453.37s162.013-222.018 162.013-222.018c4.084-4.584 9.917-7.251 16.001-7.251s11.918 2.667 16.001 7.251c0 0 81.090 94.091 162.013 224.685s163.347 297.774 163.347 450.703c0 188.599-152.762 341.361-341.361 341.361zM512 917.329c165.597 0 298.691-133.094 298.691-298.691 0-137.261-77.59-300.441-156.679-428.035-66.255-106.925-122.343-175.764-142.012-199.35-19.835 23.419-75.923 90.757-142.012 196.683-79.006 126.677-156.679 290.107-156.679 430.702 0 165.597 133.094 298.691 298.691 298.691zM512 746.649c-82.257 0-149.345-67.089-149.345-149.345s67.089-149.345 149.345-149.345c82.257 0 149.345 67.089 149.345 149.345s-67.089 149.345-149.345 149.345zM512 703.979c59.171 0 106.675-47.504 106.675-106.675s-47.504-106.675-106.675-106.675c-59.171 0-106.675 47.504-106.675 106.675s47.504 106.675 106.675 106.675z" />
<glyph unicode="&#xe905;" glyph-name="location" d="M512 960c-188.167 0-341.333-153.167-341.333-341.333 0-301.083 312.083-660.167 325.333-675.333 4.083-4.667 9.833-7.333 16-7.333 6.583 0.417 11.917 2.667 16 7.333 13.25 15.417 325.333 380.667 325.333 675.333 0 188.167-153.167 341.333-341.333 341.333zM512 725.333c70.667 0 128-57.333 128-128s-57.333-128-128-128c-70.667 0-128 57.333-128 128s57.333 128 128 128z" />
<glyph unicode="&#xe906;" glyph-name="phone2" d="M205.708 959.763c-17.9 1.454-37.798-3.725-56.152-16.628-16.173-11.267-51.064-38.98-83.683-70.327-16.264-15.628-31.801-31.892-43.795-47.884-12.085-15.992-22.624-30.62-21.988-51.882 0.636-19.081 2.544-75.506 43.159-162.006 40.615-86.409 119.392-204.983 273.038-358.721 153.737-153.737 272.312-232.514 358.721-273.129s142.925-42.523 162.006-43.159c21.171-0.636 35.799 9.904 51.791 21.988s32.256 27.531 47.884 43.795c31.256 32.619 58.969 67.51 70.236 83.683 25.714 36.617 21.443 79.867-7.178 99.948-17.991 12.63-183.449 122.754-208.345 138.018-25.259 15.446-54.335 8.45-80.321-5.27-20.444-10.813-75.778-42.523-91.588-51.609-11.903 7.541-57.061 37.617-154.192 134.747-97.222 97.131-127.206 142.289-134.747 154.192 9.086 15.81 40.706 70.872 51.609 91.679 13.629 25.895 21.262 55.244 4.997 80.685-6.815 10.813-37.798 57.97-69.055 105.308-31.347 47.339-61.059 92.224-68.782 102.946v0.091c-10.086 13.902-25.805 22.079-43.613 23.533zM201.438 912.242c6.36-0.818 10.176-3.362 10.176-3.362 3.725-5.179 36.345-54.063 67.601-101.31 31.256-47.339 63.149-95.859 68.691-104.672 0.909-1.363 2.181-16.809-6.905-33.982v-0.091c-10.267-19.535-58.151-103.219-58.151-103.219l-6.633-11.721 6.815-11.63c0 0 35.709-60.241 149.285-173.818 113.668-113.577 173.909-149.376 173.909-149.376l11.63-6.815 11.721 6.633c0 0 83.502 47.793 103.219 58.151 17.173 8.995 32.619 7.814 34.436 6.724 16.082-9.904 194.807-128.66 205.801-136.383 0.363-0.273 10.086-14.992-4.089-35.163h-0.091c-8.541-12.266-36.526-47.793-65.693-78.141-14.629-15.174-29.621-29.348-42.341-38.889s-24.078-12.539-22.261-12.63c-19.808 0.636-63.512 1.090-143.743 38.798-80.231 37.617-194.716 112.941-345.637 263.952-150.83 150.83-226.154 265.315-263.861 345.637-37.617 80.231-38.071 123.935-38.707 143.652 0.091-1.817 3.089 9.631 12.63 22.352s23.624 27.804 38.798 42.432c30.439 29.167 65.874 57.152 78.141 65.693v-0.091c10.086 7.087 18.899 7.996 25.259 7.269z" />
<glyph unicode="&#xe907;" glyph-name="phone" d="M838.499-64c-0.364 0-0.727 0-1.091 0-174.902 5.727-379.802 175.265-520.978 316.532-141.358 141.267-310.896 346.258-316.351 520.342-2 61.088 147.903 169.72 149.448 170.811 38.907 27.090 82.088 17.454 99.814-7.091 12-16.636 125.631-188.81 137.994-208.355 12.818-20.272 10.909-50.452-5.091-80.724-8.818-16.817-38.089-68.27-51.816-92.269 14.818-21.090 53.998-72.815 134.903-153.721 80.997-80.906 132.631-120.177 153.812-134.994 23.999 13.727 75.451 42.998 92.269 51.816 29.817 15.818 59.816 17.817 80.269 5.273 20.908-12.818 192.628-126.995 208.446-137.994 13.272-9.363 21.817-25.363 23.544-43.998 1.636-18.817-4.182-38.726-16.272-56.089-1-1.454-108.359-149.539-168.902-149.539z" />
<glyph unicode="&#xe908;" glyph-name="time2" d="M512 960c-282.335 0-512-229.665-512-512s229.665-512 512-512 512 229.665 512 512-229.665 512-512 512zM512 381.217c-10.285 0-19.924 2.515-28.627 6.678l-133.721-133.721c-4.341-4.341-10.039-6.523-15.738-6.523s-11.398 2.182-15.738 6.523c-8.704 8.704-8.704 22.773 0 31.477l133.721 133.721c-4.163 8.704-6.678 18.343-6.678 28.627 0 29.028 18.633 53.492 44.522 62.687v315.748c0 12.31 9.951 22.261 22.261 22.261s22.261-9.951 22.261-22.261v-315.748c25.889-9.193 44.522-33.659 44.522-62.687 0-36.886-29.897-66.783-66.783-66.783z" />
<glyph unicode="&#xe909;" glyph-name="time" d="M512 972.8c-282.507 0-512-229.493-512-512s229.493-512 512-512c282.507 0 512 229.493 512 512s-229.493 512-512 512zM512 928.278c258.445 0 467.478-209.034 467.478-467.478s-209.034-467.478-467.478-467.478c-258.445 0-467.478 209.034-467.478 467.478s209.034 467.478 467.478 467.478zM511.652 861.8c-12.145-0.196-21.915-10.087-21.915-22.261 0-0.108 0.001-0.214 0.002-0.321v0.016-315.522c-26.145-9.439-44.499-34.029-44.522-62.91v-0.003c0.022-10.453 2.442-20.336 6.739-29.134l-0.174 0.395-133.609-133.609c-4.222-4.058-6.845-9.752-6.845-16.060 0-12.296 9.967-22.263 22.263-22.263 6.308 0 12.002 2.623 16.052 6.837l0.007 0.008 133.609 133.609c8.403-4.123 18.286-6.543 28.732-6.565h0.008c36.883 0 66.783 29.9 66.783 66.783v0c-0.041 28.866-18.391 53.435-44.057 62.723l-0.465 0.147v315.565c0.001 0.090 0.002 0.198 0.002 0.304 0 12.296-9.967 22.263-22.263 22.263-0.122 0-0.245-0.001-0.366-0.003h0.018z" />
<glyph unicode="&#xe90a;" glyph-name="youtube" d="M1024 960h-1024v-1024h1024v1024zM739.556 448l-398.223-256v512l398.223-256z" />
<glyph unicode="&#xe90b;" glyph-name="facebook" d="M1023.999 959.999h-1023.999v-1023.999h547.327v396.003h-133.29v155.022h133.29v114.063c0 132.209 80.839 204.288 198.826 204.288 39.765 0.113 79.473-1.935 119.012-5.973v-138.24h-81.237c-64.284 0-76.8-30.379-76.8-75.207v-98.703h153.6l-19.968-155.022h-134.542v-396.23h317.781v1023.999z" />
<glyph unicode="&#xe90c;" glyph-name="instagram" d="M0 960v-1024h1024v1024h-1024zM853.333 846.223c31.403 0 56.889-25.487 56.889-56.889s-25.487-56.889-56.889-56.889c-31.403 0-56.889 25.487-56.889 56.889s25.487 56.889 56.889 56.889zM512 732.444c157.071 0 284.444-127.375 284.444-284.444s-127.375-284.444-284.444-284.444c-157.071 0-284.444 127.375-284.444 284.444s127.375 284.444 284.444 284.444zM512 618.667c-94.256 0-170.667-76.411-170.667-170.667v0c0-94.256 76.411-170.667 170.667-170.667v0c94.256 0 170.667 76.411 170.667 170.667v0c0 94.256-76.411 170.667-170.667 170.667v0z" />
<glyph unicode="&#xe90d;" glyph-name="vk" d="M1024 960h-1024v-1024h1024v1024zM848.043 238.421l-98.703-1.365c0 0-21.276-4.153-49.152 15.076-36.921 25.372-71.737 91.364-98.873 82.773-27.535-8.761-26.681-68.153-26.681-68.153s0.228-10.468-6.087-17.295c-6.827-7.339-20.196-6.599-20.196-6.599h-44.203c0 0-97.508-8.079-183.467 81.521-93.639 97.679-176.356 290.475-176.356 290.475s-4.836 12.175 0.341 18.375c5.86 6.884 21.675 7.055 21.675 7.055l105.643 0.512c0 0 9.956-1.764 17.124-6.997 5.86-4.324 9.216-12.459 9.216-12.459s17.067-43.292 39.708-82.489c44.145-76.401 64.683-93.127 79.644-84.935 21.845 11.947 15.303 107.975 15.303 107.975s0.399 34.873-10.98 50.404c-8.875 12.117-25.543 15.701-32.881 16.612-5.973 0.796 3.755 14.62 16.441 20.879 19.001 9.273 52.623 9.841 92.273 9.444 30.891-0.341 39.823-2.219 51.883-5.177 36.465-8.817 24.064-42.837 24.064-124.473 0-26.169-4.721-62.919 14.108-75.036 8.135-5.233 27.932-0.796 77.369 83.399 23.495 39.936 41.073 86.869 41.073 86.869s3.868 8.363 9.841 11.947c6.144 3.697 14.393 2.56 14.393 2.56l111.217 0.683c0 0 33.393 4.039 38.855-11.151 5.689-15.872-12.459-52.907-57.913-113.493-74.581-99.556-82.887-90.283-20.935-147.855 59.164-55.012 71.396-81.749 73.444-85.105 24.463-40.732-27.193-43.975-27.193-43.975z" />
<glyph unicode="&#xe90e;" glyph-name="choose" d="M384-64v256h256v-256h-256zM384 576h256v-256h-256v256zM384 960h256v-256h-256v256z" />
<glyph unicode="&#xe90f;" glyph-name="route" d="M162.909 934.090c-89.833 0-162.908-73.077-162.908-162.908 0-79.174 102.834-247.635 123.455-280.636l39.455-63.182 39.455 63.182c20.619 33.001 123.455 201.462 123.455 280.636 0 89.833-73.077 162.908-162.908 162.908zM861.089 468.636c-89.833 0-162.908-73.077-162.908-162.908 0-79.174 102.834-247.635 123.455-280.636l39.455-63.182 39.455 63.182c20.619 33.001 123.455 201.462 123.455 280.636 0 89.833-73.077 162.908-162.908 162.908zM139.636 328.999v-93.090h93.090v93.090h-93.090zM325.817 328.999v-93.090h93.090v93.090h-93.090zM511.999 328.999v-93.090h93.090v93.090h-93.090z" />
<glyph unicode="&#xe910;" glyph-name="calendar" d="M204.8 938.667v-102.4h-153.6v-921.6h921.6v921.6h-153.6v102.4h-102.4v-102.4h-409.6v102.4h-102.4zM153.599 580.267h716.8v-563.2h-716.8v563.2z" />
<glyph unicode="&#xe911;" glyph-name="search" d="M408.142 960c-218.739 0-396.481-177.742-396.481-396.481s177.742-396.481 396.481-396.481c86.548 0 166.537 27.878 231.767 75.069l306.836-306.107 65.594 65.594-303.191 303.92c59.582 69.421 95.476 159.522 95.476 258.004 0 218.739-177.742 396.481-396.481 396.481zM408.142 913.355c193.503 0 349.836-156.333 349.836-349.836s-156.333-349.836-349.836-349.836c-193.503 0-349.836 156.333-349.836 349.836s156.333 349.836 349.836 349.836z" />
<glyph unicode="&#xe912;" glyph-name="search1" d="M410.774 960c-220.607 0-399.037-178.43-399.037-399.037s178.43-399.037 399.037-399.037c78.762 0 151.656 23.106 213.456 62.35l288.275-288.275 99.759 99.759-284.607 283.874c51.163 67.117 82.155 150.281 82.155 241.33 0 220.607-178.43 399.037-399.037 399.037zM410.774 866.109c168.986 0 305.146-136.16 305.146-305.146s-136.16-305.146-305.146-305.146c-168.986 0-305.146 136.16-305.146 305.146s136.16 305.146 305.146 305.146z" />
<glyph unicode="&#xe913;" glyph-name="pointer" d="M501.76 949.741c-27.999 0-51.198-23.199-51.198-51.198v-51.198h-245.75c-0.64 0-1.28 0-1.92 0-10.561-0.96-18.639-9.84-18.559-20.479v-245.75c0-11.28 9.2-20.479 20.479-20.479h245.75v-61.438h-327.668c-0.64 0-1.28 0-1.92 0-5.52-0.56-10.64-3.28-14.079-7.68l-102.396-122.875c-6-7.52-6-18.079 0-25.599l102.396-122.875c3.92-4.88 9.761-7.68 15.999-7.68h327.668v-266.23h40.958v266.23h20.479v-266.23h40.958v266.23h266.23c11.28 0 20.479 9.2 20.479 20.479v245.75c0 11.28-9.2 20.479-20.479 20.479h-266.23v61.438h348.147c6.24 0 12.080 2.8 15.999 7.68l102.396 122.875c6 7.52 6 18.079 0 25.599l-102.396 122.875c-3.92 4.88-9.761 7.68-15.999 7.68h-348.147v51.198c0 27.999-23.199 51.198-51.198 51.198zM501.76 908.783c5.84 0 10.24-4.4 10.24-10.24v-51.198h-20.479v51.198c0 5.84 4.4 10.24 10.24 10.24zM225.29 806.387h666.215l85.117-102.396-85.117-102.396h-666.215zM491.521 560.636h20.479v-61.438h-20.479zM132.494 458.24h666.215v-204.792h-666.215l-85.117 102.396z" />
<glyph unicode="&#xe914;" glyph-name="schedule" d="M65.481 927.259c-35.825 0-65.354-29.528-65.354-65.354v-148.407c-0.17-1.362-0.17-2.723 0-4.085v-588.182c0-11.999 9.786-21.785 21.785-21.785h584.778c33.868-76.671 110.71-130.707 199.464-130.707 119.815 0 217.845 98.030 217.845 217.845 0 60.588-25.103 115.645-65.354 155.215v367.614c0.17 1.362 0.17 2.723 0 4.085v148.407c0 35.825-29.528 65.354-65.354 65.354zM65.481 883.69h239.63v-152.492h-261.414v130.707c0 12.339 9.446 21.785 21.785 21.785zM348.68 883.69h261.414v-152.492h-261.414zM653.663 883.69h239.63c12.339 0 21.785-9.446 21.785-21.785v-130.707h-261.414zM43.697 687.63h261.414v-152.492h-261.414zM348.68 687.63h261.414v-152.492h-261.414zM653.663 687.63h261.414v-152.492h-261.414zM43.697 491.569h261.414v-152.492h-261.414zM348.68 491.569h261.414v-152.492h-261.414zM653.663 491.569h261.414v-117.092c-32.166 18.721-69.268 29.954-108.923 29.954-59.227 0-113.092-23.912-152.492-62.63zM806.155 360.862c95.818 0 174.276-78.458 174.276-174.276s-78.458-174.276-174.276-174.276c-95.818 0-174.276 78.458-174.276 174.276s78.458 174.276 174.276 174.276zM784.37 317.293v-119.815l-78.288-58.546 25.869-35.4 95.988 72.161v141.599zM43.697 295.508h261.414v-152.492h-261.414zM348.68 295.508h269.583c-18.721-32.166-29.954-69.268-29.954-108.923 0-14.977 1.872-29.443 4.765-43.569h-244.395z" />
<glyph unicode="&#xe915;" glyph-name="arrow" d="M651.819 803.359c-11.165-1.977-20.121-10.119-23.261-20.935-3.14-10.933 0.116-22.563 8.374-30.24l273.553-273.553h-879.278c-0.93 0-1.861 0-2.791 0-16.399-0.814-29.193-14.771-28.379-31.17s14.771-29.193 31.17-28.379h879.278l-273.553-273.553c-8.839-7.211-12.91-18.725-10.351-29.891 2.559-11.049 11.282-19.772 22.331-22.331 11.165-2.559 22.68 1.512 29.891 10.351l324.728 323.798 20.47 21.4-20.47 21.4-324.728 323.798c-6.164 6.629-15.12 10.002-24.192 9.305-0.93 0-1.861 0-2.791 0z" />
<glyph unicode="&#xe916;" glyph-name="arrow-2" d="M644.152 797.36c-22.823-2.179-42.32-17.547-49.775-39.223-7.569-21.791-1.72-45.875 14.909-61.702l189.924-189.924h-737.675c-1.835 0.115-3.67 0.115-5.505 0-32.457-1.491-57.459-29.016-55.968-61.473s29.016-57.459 61.473-55.968h737.675l-190.841-189.924c-23.052-23.052-23.052-60.441 0-83.493s60.441-23.052 83.493 0l289.932 290.849 42.205 41.288-42.205 41.288-289.932 290.849c-12.386 12.73-29.934 19.153-47.71 17.433z" />
<glyph unicode="&#xe917;" glyph-name="a1" d="M166.957 960c-12.261 0-22.261-10-22.261-22.261 0-273.304 102.783-399.13 216.348-482.087 28.087 17.826 56.348 34.174 84.174 50.087 7.913 4.522 15.826 9.391 23.652 13.913-116.783 75.652-212.87 176.87-212.87 418.087 0 12.261-10 22.261-22.261 22.261zM790.261 960c-12.348 0-22.261-10-22.261-22.261 0-7.739-0.522-14.783-0.696-22.261h-444.522c-0.696 0-1.391 0-2.087 0s-1.391 0-2.087 0c-12.261-1.13-21.304-12.087-20.174-24.348s12.087-21.304 24.348-20.174h442.435c-1.304-15.478-2.696-30.348-4.87-44.522h-424.348c-0.696 0-1.391 0-2.087 0s-1.391 0-2.087 0c-12.261-1.13-21.304-12.087-20.174-24.348s12.087-21.304 24.348-20.174h415.304c-3.739-15.739-8.261-30.435-13.217-44.522h-370.783c-0.696 0-1.391 0-2.087 0s-1.391 0-2.087 0c-12.261-1.13-21.304-12.087-20.174-24.348s12.087-21.304 24.348-20.174h352c-7.826-15.913-16.348-30.783-25.739-44.522-1.13 0.087-2.348 0.087-3.478 0h-269.217c-0.696 0-1.391 0-2.087 0s-1.391 0-2.087 0c-12.261-1.13-21.304-12.087-20.174-24.348s12.087-21.304 24.348-20.174h237.217c-14.87-16-30.522-30.957-47.304-44.522h-87.652c-0.696 0-1.391 0-2.087 0s-1.391 0-2.087 0c-12.261-1.13-21.304-12.087-20.174-24.348s12.087-21.304 24.348-20.174h23.652c-25.739-16.348-52.261-31.826-79.304-47.304-158.696-90.696-322.783-184.696-322.783-509.217 0-12.348 10-22.261 22.261-22.261h66.783c12.261 0 22.261 9.913 22.261 22.261 0 251.739 129.739 327.739 279.652 416 161.217 94.957 343.652 202.696 343.652 563.478 0 12.261-9.913 22.261-22.261 22.261zM662.957 401.391c-35.217-24.261-71.13-45.391-105.043-65.391-1.391-0.783-2.783-1.304-4.174-2.087l21.565-13.217c13.478-9.13 25.913-18.87 38.261-28.522h-146.087c-0.696 0-1.391 0-2.087 0s-1.391 0-2.087 0c-12.261-1.13-21.304-12.087-20.174-24.348s12.087-21.304 24.348-20.174h196.174c13.565-14 26.348-28.522 37.565-44.522h-320.696c-0.696 0-1.391 0-2.087 0s-1.391 0-2.087 0c-12.261-1.13-21.304-12.087-20.174-24.348s12.087-21.304 24.348-20.174h347.13c6.87-13.913 12.87-28.87 18.087-44.522h-409.739c-0.696 0-1.391 0-2.087 0s-1.391 0-2.087 0c-12.261-1.13-21.304-12.087-20.174-24.348s12.087-21.304 24.348-20.174h421.565c2.957-14.174 5.217-28.87 6.957-44.522h-441.739c-0.696 0-1.391 0-2.087 0s-1.391 0-2.087 0c-12.261-1.13-21.304-12.087-20.174-24.348s12.087-21.304 24.348-20.174h444.522c0.261-7.391 0.696-14.609 0.696-22.261 0-12.348 9.913-22.261 22.261-22.261h66.783c12.348 0 22.261 9.913 22.261 22.261 0 257.391-105.826 366.261-210.783 439.652z" />
<glyph unicode="&#xe918;" glyph-name="a2" d="M367.304 932.414c-92 0-166.957-75.043-166.957-166.957 0-25.826 6.087-50.609 16.696-72.348l39.652 19.478c-7.739 15.826-11.826 33.826-11.826 52.87 0 67.913 54.435 122.435 122.435 122.435 67.826 0 122.435-54.522 122.435-122.435h44.522c0 92-75.043 166.957-166.957 166.957zM783.304 835.023c-0.957-0.174-1.913-0.435-2.783-0.696-0.435-0.174-0.957-0.435-1.391-0.696-56.435-14.174-121.043-48-162.087-124.522-39.043 8.348-78.957 14.609-121.739 14.609-126.609 0-224.783-39.391-301.913-99.478-39.391-30.609-70.261-72.696-89.739-124.522-6.87 2.348-16 6.174-26.435 13.217-17.478 11.913-32.696 28.261-32.696 58.435 0 24 11.217 44.087 29.913 52.174 10.435 3.826 16.435 14.609 14.174 25.478s-12.174 18.348-23.217 17.652c-2.87-0.174-5.739-0.87-8.348-2.087-36.957-15.913-57.043-54.261-57.043-93.217 0-46.609 27.13-78.261 52.174-95.304 15.478-10.522 28.696-15.739 38.261-18.783-7.565-32.957-10.696-69.478-9.043-108.522 4.174-99.13 71.304-171.826 121.739-212.174 0.261 0 0.435 0 0.696 0 4.522-3.565 5.913-5.652 6.261-6.261s1.391 0.783-0.696-5.565c-6.696-20.522-19.478-51.478-19.478-51.478 0-0.261 0-0.435 0-0.696-11.826-31.043 3.826-66.087 34.783-77.913 0-0.261 0-0.435 0-0.696l71.652-26.435c31.043-11.826 66.783 3.739 78.609 34.783 0 0 8.87 25.043 16.696 45.913 1.217 3.13 2.087 3.913 2.783 4.87 0.87-0.087 0.957-0.348 2.783-0.696 14.174-2.609 45.652-11.826 98.087-11.826 53.478 0 84.609 5.391 98.783 6.261 2.783 0.174 3.913 0 4.87 0 0.348-0.609 0.261-1.13 0.696-2.087 0.087-0.348-0.087-0.348 0-0.696 7.13-21.304 15.739-41.13 16-41.739 0.087-0.348 0.522-0.348 0.696-0.696 12.087-30.435 46.522-45.739 77.217-34.087l71.652 26.435c0 0.261 0 0.435 0 0.696 31.043 11.739 46.696 46.87 34.783 77.913l-11.13 29.913c-0.609 1.217-1.304 2.348-2.087 3.478 0 0 0.696 0.087 0.696 0s-3.043-1.13 4.174 2.783c54.087 29.391 95.478 74.696 121.739 129.391 2.435 5.13 4.522 8.783 6.261 10.435s2.783 2.783 9.739 2.783h36.174c32 0 58.435 26.435 58.435 58.435v108.522c0 32-26.348 58.435-58.435 58.435h-36.174c-5.652 0-7.13 0.435-7.652 0.696-11.043 64.087-54.261 144.348-149.565 185.043 1.13 45.826 11.217 82.087 33.391 141.913 2.87 7.13 1.913 15.304-2.609 21.478-4.522 6.261-12 9.739-19.652 9.13zM748.522 772.414c-13.478-41.913-23.043-79.565-22.261-123.13 0.087-9.478 6.261-17.913 15.304-20.87 93.13-32.522 127.478-104.957 136.348-160.696 3.391-21.217 26-35.478 51.478-35.478h36.174c7.826 0 13.913-6 13.913-13.913v-108.522c0-7.826-6-13.913-13.913-13.913h-36.174c-16.348 0-31.13-6.087-40.348-14.609s-13.304-17.913-16-23.652c-22.609-47.043-56.522-84.348-102.261-109.217-17.826-9.652-27.391-27.565-27.826-41.043-0.348-11.565 3.565-17.739 4.87-20.174h-0.696l1.391-3.478 9.739-27.13c3.217-8.348-0.522-17.652-9.043-20.87l-71.652-27.13c-8.522-3.217-17.739 1.304-20.87 9.739 0 0.261 0 0.435 0 0.696 0 0-8.696 19.913-15.304 39.652-3.304 9.652-8 20.435-18.783 27.13s-21.391 6.174-31.304 5.565c-19.826-1.304-45.391-6.261-96-6.261-47.739 0-71.304 7.652-90.435 11.13-9.565 1.739-21.304 3.304-33.391-3.478s-16.609-17.826-20.87-29.217c-7.652-20.522-17.391-45.217-17.391-45.217-3.217-8.435-12.435-12.957-20.87-9.739l-71.652 27.13c-8.435 3.217-12.261 12.435-9.043 20.87 0.348 0.957 12.522 30.783 20.174 54.261 5.13 15.826 2.957 31.826-3.478 42.435s-15.043 16.261-17.391 18.087c-45.043 36-101.739 100-105.043 179.478-4.696 112.783 34 191.391 94.609 238.609 70.261 54.696 157.217 89.739 274.783 89.739 44.87 0 87.304-5.478 127.304-15.304 10.522-2.609 21.304 2.696 25.739 12.522 24.957 55.043 61.913 79.391 100.174 96zM767.304 475.371c-23.565 0-42.435-18.957-42.435-42.435 0-23.565 18.87-43.13 42.435-43.13 23.478 0 42.435 19.652 42.435 43.13s-18.957 42.435-42.435 42.435z" />
<glyph unicode="&#xe919;" glyph-name="a3" d="M512 960c-96.88 0-184.72-4.4-249.6-14.72-32.48-5.12-58.88-11.44-79.36-20.48-10.24-4.56-19.6-10-26.88-17.28s-12.8-17.92-12.8-29.44c0-0.4 0-0.88 0-1.28l39.040-696.96v-1.28h0.64c0.56-7.36 3.68-13.92 7.040-17.28 3.6-3.68 7.28-5.2 10.88-7.040 7.2-3.68 15.28-6.48 24.96-8.96 19.36-5.040 45.28-9.12 75.52-12.8 60.48-7.28 138-12.16 210.56-12.16 72.48 0 150.080 3.84 210.56 10.88 30.24 3.52 56 8.24 75.52 13.44 9.76 2.56 18.24 4.96 25.6 8.96 3.68 2 7.36 4.48 10.88 8.32 3.28 3.6 5.92 9.68 6.4 16.64h0.64v1.28l39.040 696.96c0 0.4 0 0.88 0 1.28 0 11.52-5.52 22.16-12.8 29.44s-16.64 12.72-26.88 17.28c-20.48 9.040-46.88 15.36-79.36 20.48-64.88 10.32-152.72 14.72-249.6 14.72zM512 919.040c95.6 0 182.16-4.4 243.2-14.080 30.56-4.8 54.4-11.44 69.12-17.92 7.36-3.28 12.16-6.4 14.080-8.32 0.96-0.96 1.2-1.28 1.28-1.28l-38.4-689.28c-2.88-1.28-6.72-2.72-13.44-4.48-16.080-4.24-40.64-8.16-69.76-11.52-58.32-6.8-135.2-10.88-206.080-10.88-70.8 0-147.76 4.48-206.080 11.52-29.2 3.52-53.6 8-69.76 12.16-6.48 1.68-10.4 2.56-13.44 3.84l-38.4 689.28c0.16 0.16 0.56-0.080 1.28 0.64 1.92 1.92 6.72 5.040 14.080 8.32 14.72 6.48 38.56 13.12 69.12 17.92 61.040 9.68 147.6 14.080 243.2 14.080zM252.16 857.6c-10.32-1.92-17.44-11.28-16.64-21.76l26.88-471.040c0.64-10.8 9.68-19.2 20.48-19.2h458.24c10.8 0 19.84 8.4 20.48 19.2l26.88 471.040c0.32 5.68-1.68 11.2-5.52 15.28-3.92 4.16-9.28 6.48-14.96 6.48h-512c-0.64 0-1.28 0-1.92 0s-1.28 0-1.92 0zM277.76 816.64h468.48l-24.32-430.080h-419.84zM512 754.56l-17.92-35.2c0 0-19.2-36.64-38.4-78.72-9.6-21.040-19.44-43.12-26.88-63.36s-12.8-37.2-12.8-53.76c0-52.56 43.44-96 96-96s96 43.44 96 96c0 16.56-5.36 33.52-12.8 53.76s-17.28 42.32-26.88 63.36c-19.2 42.080-38.4 78.72-38.4 78.72zM512 663.68c7.12-14.24 9.52-18.56 19.2-39.68 9.36-20.48 18.8-42.24 25.6-60.8s10.24-35.76 10.24-39.68c0-29.36-25.68-55.040-55.040-55.040s-55.040 25.68-55.040 55.040c0 3.92 3.44 21.12 10.24 39.68s16.24 40.32 25.6 60.8c9.68 21.12 12.080 25.44 19.2 39.68zM325.76 304.64c-11.040 0-22.64-3.92-30.080-12.8-6.96-8.32-7.36-18.4-5.76-26.88h-0.64c0.080-0.32-0.080-0.32 0-0.64 0.080-0.4-0.080-0.88 0-1.28h0.64c2.48-15.36 6.32-27.76 7.68-33.28 0.16-0.4 0.4-0.88 0.64-1.28 1.68-5.040 4.080-11.12 9.6-16.64s14.48-9.6 23.68-9.6h122.88c13.44 0 23.040 8.4 29.44 18.56 7.12 3.44 11.6 10.64 11.52 18.56v28.16c0 21.2-18.080 37.12-36.48 37.12zM569.6 304.64c-21.2 0-37.12-18.72-37.12-37.12 0.080-4.16 1.44-8.16 3.84-11.52v-16.64c0-21.2 18.72-37.12 37.12-37.12h122.88c9.92 0 17.12 4.24 22.4 8.96s9.2 10.32 11.52 17.28c0 0.4 0 0.88 0 1.28 2.24 8.96 4.4 19.040 8.32 32.64 0.4 1.68 0.64 3.36 0.64 5.12 0 5.84-0.4 14.8-7.040 23.68s-18.4 13.44-29.44 13.44zM331.52 263.68h122.88v-12.8c-1.84-2.24-3.12-4.88-3.84-7.68h-113.92c-1.84 6.72-3.52 13.44-5.12 20.48zM577.28 263.68h119.040c-2-7.84-3.92-15.52-5.12-20.48h-113.92zM491.52 99.84v-163.84h40.96v163.84z" />
<glyph unicode="&#xe91a;" glyph-name="a4" d="M617.99 955.832c-6.054-0.459-12.045-2.051-17.701-4.878l-87.683-41.834-89.237 42.611-1.252 0.389c-20.032 6.678-47.541 2.469-62.168-19.471l-57.203-76.89-99.383-2.029-1.511-0.259c-20.111-3.352-42.666-18.386-46.41-44.597l0.043 0.475-15.931-95.843-89.799-48.958-1.468-1.166c-17.304-13.843-28.193-36.951-20.162-61.046l0.043-0.13 31.991-92.044-51.677-81.51c-14.018-21.027-9.984-49.681 7.123-66.788l0.086-0.13 70.242-68.212-8.030-98.26 0.173 1.295c-3.865-27.058 14.461-49.115 36.524-56.47l0.518-0.173 94.461-26.162 38.208-90.533 0.302-0.604c11.312-22.623 35.292-33.024 58.067-29.228l0.389 0.043 96.534 20.118 76.89-62.73 0.863-0.561c9.372-6.248 20.386-10.232 31.775-10.232s23.344 3.442 32.811 12.909l-1.597-1.468 76.070 62.082 94.634-19.643c25.83-7.38 50.363 8.639 60.398 28.71l0.302 0.604 38.208 90.533 94.979 26.335c22.063 7.354 40.389 29.411 36.524 56.47l0.13-1.295-7.987 98.26 70.112 68.126-1.554-1.382c20.837 16.67 24.659 46.585 7.771 67.694l1.382-1.9-52.109 82.114 30.178 92.432 0.086 0.389c6.492 22.723-0.788 50.863-24.263 62.6l-82.977 47.446-15.974 96.102 0.043-0.518c-3.421 23.95-24.24 44.899-49.907 44.899h0.863l-98.088 4.015-57.376 77.106c-7.009 10.514-17.61 17.918-29.271 21.284-5.83 1.684-11.949 2.358-18.003 1.9zM622.178 913.652c2.555 0.506 4.72-0.625 7.469-4.749l0.302-0.475 70.501-94.85 119.415-4.835c5.279 0 6.556-1.163 7.555-8.16v-0.259l19.428-116.35 102.707-58.671c3.040-1.52 4.561-4.317 2.245-12.477 0 0 0-0.043 0-0.043l-36.049-110.521 63.507-100.16 0.734-0.907c0.795-0.995 0.188-6.455-1.079-7.469l-0.82-0.648-0.734-0.734-84.618-82.157 9.714-119.026 0.086-0.648c0.553-3.868-3.208-8.291-7.642-9.8l-112.853-31.214-45.504-107.802c-3.2-6.377-5.184-8.060-10.275-6.605l-0.734 0.216-116.868 24.306-92.734-75.638-0.777-0.777c0.625 0.625-0.673-0.345-2.547-0.345-1.784 0-4.082 0.614-7.642 2.893l-90.619 73.868-115.27-24.004c-3.725-0.621-10.601 2.227-12.606 6.087l-45.547 107.802-112.853 31.257c-4.418 1.521-8.193 5.898-7.642 9.757l0.13 0.648 9.714 119.026-84.402 81.941c-4.997 4.997-5.392 7.281-1.727 12.779l0.13 0.216 63.118 99.556-38.682 111.169v0.043c-0.763 2.362 1.689 9.599 6.13 13.556l103.484 56.47 19.471 116.652v0.216c0.657 4.6 4.697 7.077 10.793 8.203l116.004 2.374 70.975 95.541c2.996 4.494 6.489 4.576 12.736 2.547l104.305-49.778 106.852 50.987c0.976 0.488 1.868 0.825 2.72 0.993zM391.033 690.883c-35.367 0-61.909-19.902-72.961-53.059-4.421-13.263-4.404-19.885-4.404-68.515s2.193-57.463 4.404-68.515c11.052-30.946 37.595-53.059 72.961-53.059s61.909 19.902 72.961 53.059c4.421 13.263 4.404 19.885 4.404 68.515s-2.193 57.463-4.404 68.515c-11.052 30.946-37.595 53.059-72.961 53.059zM631.978 690.883c-6.631 0-8.842-2.228-11.052-6.649l-260.848-472.997c-2.21-2.21 0.026-6.649 4.447-6.649h30.911c4.421 0 6.64 2.228 8.85 6.649l263.050 472.997c0 2.21 0.017 6.649-4.404 6.649h-30.955zM391.033 644.472c15.473 0 26.534-8.842 30.955-22.104 2.21-6.631 2.202-13.263 2.202-55.261 0-39.788-2.202-46.428-2.202-53.059-4.421-15.473-15.482-22.104-30.955-22.104s-26.534 8.842-30.955 22.104c-2.21 6.631-2.202 13.271-2.202 53.059 0 41.998 2.202 48.629 2.202 55.261 4.421 15.473 15.482 22.104 30.955 22.104zM634.18 447.736c-35.367 0-61.909-19.902-72.961-53.059-4.421-13.263-4.404-19.885-4.404-68.515s2.193-57.463 4.404-68.515c11.052-30.946 37.595-53.059 72.961-53.059s61.909 19.902 72.961 53.059c4.421 13.263 4.404 19.885 4.404 68.515s-2.193 57.463-4.404 68.515c-11.052 30.946-37.595 53.059-72.961 53.059zM634.18 401.325c15.473 0 26.534-8.842 30.955-22.104 2.21-6.631 2.202-13.263 2.202-55.261 0-39.788-2.202-46.428-2.202-53.059-4.421-15.473-15.482-22.104-30.955-22.104s-26.534 8.842-30.955 22.104c-2.21 6.631-2.202 13.271-2.202 53.059 0 41.998 2.202 48.629 2.202 55.261 4.421 15.473 15.482 22.104 30.955 22.104z" />
<glyph unicode="&#xe91b;" glyph-name="a5" d="M121.905 960c-66.937 0-121.905-54.968-121.905-121.905v-780.19c0-66.937 54.968-121.905 121.905-121.905h780.19c66.937 0 121.905 54.968 121.905 121.905v780.19c0 66.937-54.968 121.905-121.905 121.905h-780.19zM121.905 911.238h780.19c40.339 0 73.143-32.804 73.143-73.143v-780.19c0-40.339-32.804-73.143-73.143-73.143h-780.19c-40.339 0-73.143 32.804-73.143 73.143v780.19c0 40.339 32.804 73.143 73.143 73.143zM316.952 716.19v-536.381h97.524v195.048h195.048c80.676 0 146.286 65.61 146.286 146.286v48.762c0 80.676-65.61 146.286-146.286 146.286h-292.571zM414.476 618.667h195.048c26.892 0 48.762-21.87 48.762-48.762v-48.762c0-26.892-21.87-48.762-48.762-48.762h-195.048v146.286z" />
<glyph unicode="&#xe91c;" glyph-name="loading" d="M512 959.999c-211.773 0-393.502-128.871-471.344-312.504-0.508-0.84-1.003-1.827-1.424-2.852l-0.054-0.148c-1.865-4.494-3.359-9.049-5.087-13.566-2.337-6.101-4.806-12.139-6.914-18.349-3.852-11.338-7.319-22.743-10.349-34.177 0.004 0.039-0.026-0.077-0.054-0.195l-0.033-0.153c-0.182-0.691-0.43-1.351-0.609-2.044-0.448-1.669-0.705-3.584-0.705-5.56 0-12.301 9.973-22.274 22.274-22.274 10.322 0 19.003 7.020 21.53 16.547l0.035 0.155c0.083 0.322 0.177 0.635 0.261 0.957 2.863 11.029 6.237 21.828 9.87 32.524 1.92 5.647 4.155 11.257 6.305 16.871 67.285 175.443 236.893 300.243 436.297 300.243 258.438 0 467.474-209.036 467.474-467.474-0.001-0.093-0.002-0.204-0.002-0.315 0-12.297 9.968-22.265 22.265-22.265s22.265 9.968 22.265 22.265c0 0.111-0.001 0.221-0.002 0.332v-0.016c0 282.502-229.498 511.999-511.999 511.999zM15.611 468.219l-14.349-13.871-1.261-7.74 0.348-20.958 0.043-0.652 0.043-0.609 2.044-27.785 0.043-0.652 0.087-0.609 3.652-27.568 0.087-0.609 0.13-0.609 5.131-27.263 0.13-0.609 0.174-0.609 5.479-22.089 13.001-15.175 19.915 1.348 10.827 16.741-0.522 7.827-5.392 21.654-4.826 25.22-0.043 0.391-3.479 26.48-2 26.828-0.043 0.391-0.304 19.654-9.218 17.697-19.697 3.174zM90.052 226.373l-18.784-6.827-5.783-19.089 2.696-7.348 7.914-13.697 0.348-0.565 0.304-0.522 15.567-23.654 0.391-0.522 16.523-22.306 0.348-0.522 0.435-0.478 17.784-21.393 0.87-0.957 19.089-20.436 18.697-6.914 16.741 10.827 1.348 19.915-4.261 6.566-18.828 20.132-0.261 0.304-16.61 20.002-15.393 20.741-14.523 22.045-0.13 0.261-7.827 13.479-16.654 10.957zM854.464 120.494c-6.010-0.124-11.417-2.61-15.348-6.565l-0.001-0.001c-5.073-4.968-10.236-9.81-15.523-14.523-4.934-4.113-8.051-10.262-8.051-17.137 0-12.297 9.968-22.265 22.265-22.265 5.978 0 11.405 2.356 15.405 6.19l-0.008-0.008c5.8 5.171 11.477 10.463 17.045 15.914 4.268 4.064 6.921 9.789 6.921 16.134 0 12.297-9.968 22.265-22.265 22.265-0.154 0-0.31-0.001-0.463-0.004h0.023zM262.718 47.923c-11.742-0.686-21.005-10.376-21.005-22.229 0-8.269 4.508-15.485 11.201-19.326l0.109-0.058c19.828-11.589 40.673-22.021 62.484-31.090 0.248-0.105 0.651-0.253 1.060-0.389l0.158-0.046c6.813-2.823 13.654-5.514 20.523-8.001 2.353-0.924 5.078-1.459 7.928-1.459 12.297 0 22.265 9.968 22.265 22.265 0 9.717-6.226 17.981-14.905 21.019l-0.157 0.048c-6.616 2.396-13.195 4.963-19.741 7.696-0.007 0-0.014 0-0.022 0s-0.015 0-0.023 0h0.001c-19.955 8.296-38.984 17.809-57.092 28.394-3.284 2.016-7.261 3.21-11.517 3.21-0.446 0-0.888-0.013-1.327-0.039l0.061 0.003zM717.278 26.182l-7.609-1.783-23.176-10.044-20.089-7.218-13.74-14.479 3.348-19.654 17.784-9.088 7.696 1.304 20.393 7.348 1.304 0.522 24.132 10.436 12.827 15.306-4.566 19.393-18.306 7.957zM531.958-18.822l-11.088-0.652-34.612 0.609v-0.478l-17.523-6.87-5.261-19.219 12.262-15.74 7.566-2.087 0.609-0.043 0.826-0.087h0.826l36.655-0.609 0.826 0.043 11.479 0.652 17.306 9.957 2.392 19.784-14.436 13.784-7.827 0.957z" />
</font>
</defs>
</svg>
