<svg xmlns="http://www.w3.org/2000/svg" xmlns:xlink="http://www.w3.org/1999/xlink" viewBox="0 0 50 50" version="1.1">
	<g>
		<path d="M 25 0 C 20.269531 0 15.980469 0.214844 12.8125 0.71875 C 11.226563 0.96875 9.9375 1.277344 8.9375 1.71875 C 8.4375 1.941406 7.980469 2.207031 7.625 2.5625 C 7.269531 2.917969 7 3.4375 7 4 C 7 4.019531 7 4.042969 7 4.0625 L 8.90625 38.09375 L 8.90625 38.15625 L 8.9375 38.15625 C 8.964844 38.515625 9.117188 38.835938 9.28125 39 C 9.457031 39.179688 9.636719 39.253906 9.8125 39.34375 C 10.164063 39.523438 10.558594 39.660156 11.03125 39.78125 C 11.976563 40.027344 13.242188 40.226563 14.71875 40.40625 C 17.671875 40.761719 21.457031 41 25 41 C 28.539063 41 32.328125 40.8125 35.28125 40.46875 C 36.757813 40.296875 38.015625 40.066406 38.96875 39.8125 C 39.445313 39.6875 39.859375 39.570313 40.21875 39.375 C 40.398438 39.277344 40.578125 39.15625 40.75 38.96875 C 40.910156 38.792969 41.039063 38.496094 41.0625 38.15625 L 41.09375 38.15625 L 41.09375 38.09375 L 43 4.0625 C 43 4.042969 43 4.019531 43 4 C 43 3.4375 42.730469 2.917969 42.375 2.5625 C 42.019531 2.207031 41.5625 1.941406 41.0625 1.71875 C 40.0625 1.277344 38.773438 0.96875 37.1875 0.71875 C 34.019531 0.214844 29.730469 0 25 0 Z M 25 2 C 29.667969 2 33.894531 2.214844 36.875 2.6875 C 38.367188 2.921875 39.53125 3.246094 40.25 3.5625 C 40.609375 3.722656 40.84375 3.875 40.9375 3.96875 C 40.984375 4.015625 40.996094 4.03125 41 4.03125 L 39.125 37.6875 C 38.984375 37.75 38.796875 37.820313 38.46875 37.90625 C 37.683594 38.113281 36.484375 38.304688 35.0625 38.46875 C 32.214844 38.800781 28.460938 39 25 39 C 21.542969 39 17.785156 38.78125 14.9375 38.4375 C 13.511719 38.265625 12.320313 38.046875 11.53125 37.84375 C 11.214844 37.761719 11.023438 37.71875 10.875 37.65625 L 9 4 C 9.007813 3.992188 9.027344 4.003906 9.0625 3.96875 C 9.15625 3.875 9.390625 3.722656 9.75 3.5625 C 10.46875 3.246094 11.632813 2.921875 13.125 2.6875 C 16.105469 2.214844 20.332031 2 25 2 Z M 12.3125 5 C 11.808594 5.09375 11.460938 5.550781 11.5 6.0625 L 12.8125 29.0625 C 12.84375 29.589844 13.285156 30 13.8125 30 L 36.1875 30 C 36.714844 30 37.15625 29.589844 37.1875 29.0625 L 38.5 6.0625 C 38.515625 5.785156 38.417969 5.515625 38.230469 5.316406 C 38.039063 5.113281 37.777344 5 37.5 5 L 12.5 5 C 12.46875 5 12.4375 5 12.40625 5 C 12.375 5 12.34375 5 12.3125 5 Z M 13.5625 7 L 36.4375 7 L 35.25 28 L 14.75 28 Z M 25 10.03125 L 24.125 11.75 C 24.125 11.75 23.1875 13.539063 22.25 15.59375 C 21.78125 16.621094 21.300781 17.699219 20.9375 18.6875 C 20.574219 19.675781 20.3125 20.503906 20.3125 21.3125 C 20.3125 23.878906 22.433594 26 25 26 C 27.566406 26 29.6875 23.878906 29.6875 21.3125 C 29.6875 20.503906 29.425781 19.675781 29.0625 18.6875 C 28.699219 17.699219 28.21875 16.621094 27.75 15.59375 C 26.8125 13.539063 25.875 11.75 25.875 11.75 Z M 25 14.46875 C 25.347656 15.164063 25.464844 15.375 25.9375 16.40625 C 26.394531 17.40625 26.855469 18.46875 27.1875 19.375 C 27.519531 20.28125 27.6875 21.121094 27.6875 21.3125 C 27.6875 22.746094 26.433594 24 25 24 C 23.566406 24 22.3125 22.746094 22.3125 21.3125 C 22.3125 21.121094 22.480469 20.28125 22.8125 19.375 C 23.144531 18.46875 23.605469 17.40625 24.0625 16.40625 C 24.535156 15.375 24.652344 15.164063 25 14.46875 Z M 15.90625 32 C 15.367188 32 14.800781 32.191406 14.4375 32.625 C 14.097656 33.03125 14.078125 33.523438 14.15625 33.9375 L 14.125 33.9375 C 14.128906 33.953125 14.121094 33.953125 14.125 33.96875 C 14.128906 33.988281 14.121094 34.011719 14.125 34.03125 L 14.15625 34.03125 C 14.277344 34.78125 14.464844 35.386719 14.53125 35.65625 C 14.539063 35.675781 14.550781 35.699219 14.5625 35.71875 C 14.644531 35.964844 14.761719 36.261719 15.03125 36.53125 C 15.300781 36.800781 15.738281 37 16.1875 37 L 22.1875 37 C 22.84375 37 23.3125 36.589844 23.625 36.09375 C 23.972656 35.925781 24.191406 35.574219 24.1875 35.1875 L 24.1875 33.8125 C 24.1875 32.777344 23.304688 32 22.40625 32 Z M 27.8125 32 C 26.777344 32 26 32.914063 26 33.8125 C 26.003906 34.015625 26.070313 34.210938 26.1875 34.375 L 26.1875 35.1875 C 26.1875 36.222656 27.101563 37 28 37 L 34 37 C 34.484375 37 34.835938 36.792969 35.09375 36.5625 C 35.351563 36.332031 35.542969 36.058594 35.65625 35.71875 C 35.65625 35.699219 35.65625 35.675781 35.65625 35.65625 C 35.765625 35.21875 35.871094 34.726563 36.0625 34.0625 C 36.082031 33.980469 36.09375 33.898438 36.09375 33.8125 C 36.09375 33.527344 36.074219 33.089844 35.75 32.65625 C 35.425781 32.222656 34.851563 32 34.3125 32 Z M 16.1875 34 L 22.1875 34 L 22.1875 34.625 C 22.097656 34.734375 22.035156 34.863281 22 35 L 16.4375 35 C 16.347656 34.671875 16.265625 34.34375 16.1875 34 Z M 28.1875 34 L 34 34 C 33.902344 34.382813 33.808594 34.757813 33.75 35 L 28.1875 35 Z M 24 42 L 24 50 L 26 50 L 26 42 Z "></path>
	</g>
</svg>