<svg xmlns="http://www.w3.org/2000/svg" xmlns:xlink="http://www.w3.org/1999/xlink" viewBox="0 0 50 50" version="1.1">
	<g>
		<path d="M 6 6 C 4.355469 6 3 7.355469 3 9 L 3 15.8125 C 2.992188 15.875 2.992188 15.9375 3 16 L 3 43 C 3 43.550781 3.449219 44 4 44 L 30.84375 44 C 32.398438 47.519531 35.925781 50 40 50 C 45.5 50 50 45.5 50 40 C 50 37.21875 48.847656 34.691406 47 32.875 L 47 16 C 47.007813 15.9375 47.007813 15.875 47 15.8125 L 47 9 C 47 7.355469 45.644531 6 44 6 Z M 6 8 L 17 8 L 17 15 L 5 15 L 5 9 C 5 8.433594 5.433594 8 6 8 Z M 19 8 L 31 8 L 31 15 L 19 15 Z M 33 8 L 44 8 C 44.566406 8 45 8.433594 45 9 L 45 15 L 33 15 Z M 5 17 L 17 17 L 17 24 L 5 24 Z M 19 17 L 31 17 L 31 24 L 19 24 Z M 33 17 L 45 17 L 45 24 L 33 24 Z M 5 26 L 17 26 L 17 33 L 5 33 Z M 19 26 L 31 26 L 31 33 L 19 33 Z M 33 26 L 45 26 L 45 31.375 C 43.523438 30.515625 41.820313 30 40 30 C 37.28125 30 34.808594 31.097656 33 32.875 Z M 40 32 C 44.398438 32 48 35.601563 48 40 C 48 44.398438 44.398438 48 40 48 C 35.601563 48 32 44.398438 32 40 C 32 35.601563 35.601563 32 40 32 Z M 39 34 L 39 39.5 L 35.40625 42.1875 L 36.59375 43.8125 L 41 40.5 L 41 34 Z M 5 35 L 17 35 L 17 42 L 5 42 Z M 19 35 L 31.375 35 C 30.515625 36.476563 30 38.179688 30 40 C 30 40.6875 30.085938 41.351563 30.21875 42 L 19 42 Z "></path>
	</g>
</svg>