<svg 
 xmlns="http://www.w3.org/2000/svg"
 xmlns:xlink="http://www.w3.org/1999/xlink"
 width="42px" height="42px">
<path fill-rule="evenodd"  fill="rgb(1, 31, 88)"
 d="M21.000,-0.001 C9.420,-0.001 0.000,9.420 0.000,21.000 C0.000,32.579 9.420,42.000 21.000,42.000 C32.579,42.000 42.000,32.579 42.000,21.000 C42.000,9.420 32.579,-0.001 21.000,-0.001 ZM21.000,40.000 C10.523,40.000 2.000,31.476 2.000,21.000 C2.000,10.523 10.523,2.000 21.000,2.000 C31.477,2.000 40.000,10.523 40.000,21.000 C40.000,31.476 31.477,40.000 21.000,40.000 ZM10.000,20.000 L10.000,22.000 L32.000,22.000 L32.000,20.000 L10.000,20.000 Z"/>
</svg>