<?xml version="1.0" encoding="UTF-8"?>
<svg style="enable-background:new 0 0 250 86" version="1.1" viewBox="0 0 250 86" xml:space="preserve" xmlns="http://www.w3.org/2000/svg" xmlns:xlink="http://www.w3.org/1999/xlink" width="250px" height="86px">
	<title>Дельта Клиник</title>
    <desc>created with tarantul web development</desc>
	<path fill-rule="evenodd" fill="rgb(12, 51, 104)" d="M247.535,55.602 C246.950,55.926 246.339,56.088 245.701,56.088 C245.063,56.088 244.452,55.926 243.868,55.602 C243.283,55.278 242.828,54.823 242.503,54.237 C242.177,53.651 242.015,53.041 242.015,52.406 C242.015,51.765 242.180,51.149 242.510,50.558 C242.841,49.967 243.300,49.513 243.890,49.196 C244.479,48.878 245.083,48.720 245.701,48.720 C246.320,48.720 246.923,48.878 247.513,49.196 C248.102,49.513 248.561,49.967 248.890,50.558 C249.218,51.149 249.383,51.765 249.383,52.406 C249.383,53.041 249.221,53.651 248.897,54.237 C248.573,54.823 248.119,55.278 247.535,55.602 ZM248.360,50.866 C248.085,50.373 247.701,49.993 247.210,49.728 C246.718,49.463 246.215,49.330 245.701,49.330 C245.184,49.330 244.680,49.463 244.190,49.728 C243.700,49.993 243.317,50.373 243.040,50.866 C242.763,51.359 242.625,51.872 242.625,52.406 C242.625,52.937 242.761,53.446 243.033,53.932 C243.304,54.419 243.685,54.798 244.173,55.070 C244.661,55.342 245.171,55.478 245.701,55.478 C246.232,55.478 246.741,55.342 247.229,55.070 C247.718,54.798 248.097,54.419 248.367,53.932 C248.637,53.446 248.772,52.937 248.772,52.406 C248.772,51.872 248.635,51.359 248.360,50.866 ZM246.282,53.817 C246.006,53.326 245.783,53.018 245.613,52.895 C245.496,52.803 245.325,52.758 245.101,52.758 L244.725,52.758 L244.725,54.442 L244.085,54.442 L244.085,50.478 L245.447,50.478 C245.913,50.478 246.250,50.514 246.458,50.587 C246.666,50.661 246.832,50.788 246.956,50.971 C247.080,51.153 247.142,51.347 247.142,51.552 C247.142,51.842 247.038,52.094 246.832,52.309 C246.625,52.523 246.351,52.644 246.009,52.670 C246.149,52.729 246.261,52.799 246.346,52.880 C246.505,53.036 246.700,53.298 246.932,53.666 L247.415,54.442 L246.634,54.442 L246.282,53.817 ZM246.260,52.045 C246.395,51.934 246.463,51.788 246.463,51.605 C246.463,51.488 246.430,51.383 246.365,51.291 C246.300,51.198 246.210,51.129 246.094,51.083 C245.979,51.037 245.765,51.015 245.452,51.015 L244.725,51.015 L244.725,52.211 L245.501,52.211 C245.872,52.211 246.125,52.156 246.260,52.045 ZM238.624,71.000 C238.205,71.000 237.656,71.037 236.978,71.111 C236.299,71.185 235.911,71.222 235.812,71.222 C235.146,69.959 234.468,68.733 233.777,67.543 C232.864,65.982 232.100,64.731 231.483,63.790 C231.310,63.518 231.150,63.295 231.002,63.121 C230.854,62.948 230.669,62.774 230.447,62.601 L230.447,71.222 C230.077,71.222 229.769,71.207 229.522,71.177 C228.535,71.059 227.993,71.000 227.894,71.000 C227.524,71.000 227.031,71.037 226.414,71.111 C225.797,71.185 225.440,71.222 225.341,71.222 L225.341,53.240 C226.155,53.339 226.704,53.394 226.988,53.406 C227.271,53.419 227.573,53.425 227.894,53.425 C228.659,53.425 229.510,53.364 230.447,53.240 L230.447,61.158 C230.521,61.232 230.632,61.245 230.780,61.195 C231.841,60.135 233.025,58.852 234.332,57.347 C235.886,55.547 237.070,54.178 237.884,53.240 C238.057,53.240 238.316,53.265 238.661,53.314 C239.006,53.364 239.278,53.388 239.475,53.388 C239.648,53.388 239.907,53.364 240.252,53.314 C240.597,53.265 240.856,53.240 241.029,53.240 L241.029,53.463 C240.388,54.278 239.635,55.119 238.772,55.984 C236.404,58.382 235.084,59.741 234.813,60.062 L237.810,64.771 C238.920,66.576 240.129,68.640 241.436,70.962 L241.436,71.222 C241.041,71.222 240.505,71.185 239.827,71.111 C239.148,71.037 238.747,71.000 238.624,71.000 ZM225.996,75.740 L227.227,75.740 L227.227,83.000 L225.996,83.000 L225.996,79.780 L222.585,79.780 L222.585,83.000 L221.354,83.000 L221.354,75.740 L222.585,75.740 L222.585,78.762 L225.996,78.762 L225.996,75.740 ZM219.014,71.000 C218.471,71.000 217.978,71.029 217.534,71.089 C217.090,71.147 216.732,71.192 216.461,71.222 L216.461,59.965 C214.981,61.605 213.402,63.506 211.725,65.668 C210.294,67.507 208.925,69.358 207.618,71.222 C207.421,71.222 207.199,71.222 206.952,71.222 C206.705,71.222 206.520,71.222 206.397,71.222 C205.854,71.222 205.435,71.222 205.139,71.222 L205.139,53.240 C205.558,53.290 206.033,53.333 206.564,53.369 C207.094,53.406 207.470,53.425 207.692,53.425 C208.185,53.425 208.716,53.385 209.283,53.303 C209.727,53.181 210.048,53.120 210.245,53.120 L210.245,64.229 C211.848,62.347 213.304,60.576 214.611,58.916 C216.214,56.910 217.694,54.978 219.051,53.120 C219.396,53.120 219.699,53.120 219.958,53.120 C220.217,53.120 220.445,53.120 220.642,53.120 C220.864,53.120 221.172,53.120 221.567,53.120 L221.567,71.222 C221.222,71.222 220.741,71.185 220.124,71.111 C219.507,71.037 219.137,71.000 219.014,71.000 ZM198.812,71.000 C198.269,71.000 197.776,71.029 197.332,71.089 C196.888,71.147 196.530,71.192 196.259,71.222 L196.259,62.860 L190.043,62.860 L190.043,71.185 C189.624,71.135 189.315,71.111 189.118,71.111 C188.255,71.037 187.712,71.000 187.490,71.000 C186.947,71.000 186.454,71.029 186.010,71.089 C185.566,71.147 185.208,71.192 184.937,71.222 L184.937,53.240 C185.356,53.290 185.831,53.333 186.362,53.369 C186.892,53.406 187.268,53.425 187.490,53.425 C187.983,53.425 188.514,53.401 189.081,53.351 C189.525,53.277 189.846,53.240 190.043,53.240 L190.043,60.640 L196.259,60.640 L196.259,53.240 C196.678,53.290 197.153,53.333 197.684,53.369 C198.214,53.406 198.590,53.425 198.812,53.425 C199.305,53.425 199.836,53.401 200.403,53.351 C200.847,53.277 201.168,53.240 201.365,53.240 L201.365,71.222 C201.020,71.222 200.539,71.185 199.922,71.111 C199.305,71.037 198.935,71.000 198.812,71.000 ZM185.836,75.836 C186.032,75.772 186.347,75.740 186.780,75.740 L187.026,75.740 L187.026,76.759 L186.684,76.752 C186.360,76.752 186.153,76.800 186.062,76.896 C185.966,76.996 185.820,77.294 185.624,77.791 C185.438,78.265 185.267,78.593 185.112,78.775 C184.957,78.958 184.717,79.124 184.394,79.274 C184.923,79.416 185.442,79.908 185.953,80.751 L187.299,83.000 L185.946,83.000 L184.633,80.751 C184.364,80.300 184.130,80.002 183.929,79.859 C183.729,79.715 183.489,79.644 183.211,79.644 L183.211,83.000 L181.981,83.000 L181.981,75.740 L183.211,75.740 L183.211,78.878 C183.603,78.878 183.878,78.803 184.035,78.652 C184.192,78.502 184.424,78.064 184.729,77.340 C184.970,76.766 185.166,76.387 185.317,76.205 C185.467,76.023 185.640,75.900 185.836,75.836 ZM178.250,82.152 C178.733,82.152 179.136,82.004 179.460,81.708 C179.783,81.412 179.988,80.956 180.075,80.341 L181.285,80.498 C181.153,81.332 180.814,81.985 180.270,82.457 C179.725,82.928 179.056,83.164 178.263,83.164 C177.270,83.164 176.471,82.839 175.867,82.190 C175.264,81.541 174.962,80.610 174.962,79.397 C174.962,78.614 175.092,77.928 175.351,77.340 C175.611,76.752 176.006,76.311 176.537,76.017 C177.068,75.723 177.646,75.576 178.270,75.576 C179.059,75.576 179.704,75.776 180.205,76.174 C180.706,76.573 181.027,77.139 181.169,77.873 L179.972,78.058 C179.858,77.570 179.657,77.203 179.367,76.957 C179.078,76.711 178.728,76.588 178.318,76.588 C177.698,76.588 177.195,76.810 176.807,77.254 C176.420,77.699 176.226,78.402 176.226,79.363 C176.226,80.339 176.413,81.047 176.787,81.489 C177.161,81.931 177.648,82.152 178.250,82.152 ZM178.610,71.000 C178.067,71.000 177.574,71.029 177.130,71.089 C176.686,71.147 176.328,71.192 176.057,71.222 L176.057,59.965 C174.577,61.605 172.998,63.506 171.321,65.668 C169.890,67.507 168.521,69.358 167.214,71.222 C167.017,71.222 166.795,71.222 166.548,71.222 C166.301,71.222 166.116,71.222 165.993,71.222 C165.450,71.222 165.031,71.222 164.735,71.222 L164.735,53.240 C165.154,53.290 165.629,53.333 166.160,53.369 C166.690,53.406 167.066,53.425 167.288,53.425 C167.781,53.425 168.312,53.385 168.879,53.303 C169.323,53.181 169.644,53.120 169.841,53.120 L169.841,64.229 C171.444,62.347 172.900,60.576 174.207,58.916 C175.810,56.910 177.290,54.978 178.647,53.120 C178.992,53.120 179.295,53.120 179.554,53.120 C179.813,53.120 180.041,53.120 180.238,53.120 C180.460,53.120 180.768,53.120 181.163,53.120 L181.163,71.222 C180.818,71.222 180.337,71.185 179.720,71.111 C179.103,71.037 178.733,71.000 178.610,71.000 ZM160.000,71.000 C159.580,71.000 159.031,71.035 158.353,71.106 C157.675,71.177 157.286,71.213 157.188,71.213 C156.694,69.507 156.041,67.517 155.227,65.242 C154.635,63.610 153.882,61.620 152.970,59.271 C151.465,63.252 149.960,67.232 148.456,71.213 L146.939,71.000 L145.496,71.213 C146.680,68.628 148.018,65.583 149.510,62.078 C151.002,58.573 152.217,55.590 153.155,53.129 L154.413,53.277 L155.671,53.129 C156.756,56.001 157.934,59.046 159.204,62.264 C160.474,65.482 161.689,68.465 162.849,71.213 C162.429,71.213 162.084,71.198 161.813,71.170 C160.727,71.057 160.123,71.000 160.000,71.000 ZM146.578,81.277 L149.989,75.740 L151.315,75.740 L151.315,83.000 L150.084,83.000 L150.084,77.497 L146.673,83.000 L145.347,83.000 L145.347,75.740 L146.578,75.740 L146.578,81.277 ZM142.536,71.000 C142.116,71.000 141.574,71.037 140.908,71.111 C140.242,71.185 139.859,71.222 139.761,71.222 L131.362,59.419 L131.362,71.222 C130.942,71.222 130.597,71.207 130.326,71.177 C129.265,71.059 128.685,71.000 128.587,71.000 C128.167,71.000 127.625,71.037 126.959,71.111 C126.293,71.185 125.910,71.222 125.812,71.222 L125.812,45.803 C126.231,45.803 126.774,45.834 127.440,45.896 C128.106,45.957 128.488,45.988 128.587,45.988 C129.006,45.988 129.351,45.976 129.623,45.951 C130.683,45.853 131.263,45.803 131.362,45.803 L131.362,57.384 C134.914,53.265 138.120,49.405 140.982,45.803 C141.426,45.853 141.815,45.896 142.148,45.932 C142.481,45.969 142.758,45.988 142.980,45.988 C143.399,45.988 143.744,45.969 144.016,45.932 C144.287,45.896 144.595,45.853 144.941,45.803 L144.941,46.100 L138.873,52.473 L135.358,56.364 L145.311,70.703 L145.311,71.222 C144.891,71.222 144.546,71.207 144.275,71.177 C143.214,71.059 142.634,71.000 142.536,71.000 ZM128.562,75.740 L128.562,83.000 L127.332,83.000 L127.332,77.155 L125.185,83.000 L124.085,83.000 L122.054,76.875 L122.054,83.000 L120.851,83.000 L120.851,75.740 L122.765,75.740 L124.672,81.551 L126.792,75.740 L128.562,75.740 ZM114.544,77.497 L111.133,83.000 L109.807,83.000 L109.807,75.740 L111.038,75.740 L111.038,81.277 L114.449,75.740 L115.775,75.740 L115.775,83.000 L114.544,83.000 L114.544,77.497 ZM112.904,74.763 C112.320,74.763 111.854,74.611 111.506,74.308 C111.157,74.005 110.949,73.566 110.880,72.992 L111.721,72.992 C111.785,73.302 111.911,73.533 112.100,73.686 C112.290,73.839 112.544,73.915 112.863,73.915 C113.232,73.915 113.511,73.841 113.700,73.693 C113.889,73.545 114.016,73.311 114.079,72.992 L114.920,72.992 C114.852,73.562 114.643,73.999 114.295,74.305 C113.946,74.610 113.482,74.763 112.904,74.763 ZM108.797,71.518 C107.929,71.518 107.179,71.283 106.547,70.815 C105.914,70.347 105.449,69.681 105.152,68.817 C104.661,69.681 103.997,70.347 103.162,70.815 C102.326,71.283 101.416,71.518 100.434,71.518 C98.861,71.518 97.595,71.098 96.637,70.260 C95.678,69.422 95.199,68.213 95.199,66.634 C95.199,64.982 95.740,63.736 96.821,62.897 C97.706,62.207 99.402,61.553 101.908,60.936 C102.498,60.788 102.952,60.665 103.272,60.566 C103.788,60.394 104.231,60.196 104.599,59.974 C104.796,59.777 104.937,59.567 105.023,59.345 C105.109,59.123 105.152,58.852 105.152,58.531 C105.152,57.668 104.790,56.909 104.065,56.255 C103.340,55.602 102.536,55.275 101.652,55.275 C100.595,55.275 99.576,55.571 98.594,56.163 C97.783,56.657 97.304,57.125 97.157,57.569 L96.899,57.569 L96.420,55.386 C97.234,54.597 98.270,53.986 99.528,53.555 C100.786,53.123 102.031,52.907 103.265,52.907 C105.090,52.907 106.644,53.265 107.927,53.980 C109.481,54.844 110.258,56.126 110.258,57.828 L110.258,67.966 C110.258,68.608 110.393,69.052 110.665,69.298 C110.936,69.545 111.442,69.668 112.182,69.668 L112.182,70.519 C111.760,70.717 111.202,70.932 110.508,71.167 C109.814,71.401 109.244,71.518 108.797,71.518 ZM105.152,61.528 C104.412,61.775 103.820,61.972 103.376,62.120 C102.562,62.416 101.927,62.737 101.471,63.082 C101.014,63.428 100.706,63.853 100.546,64.358 C100.385,64.864 100.305,65.475 100.305,66.190 C100.305,66.980 100.459,67.664 100.768,68.243 C101.076,68.823 101.587,69.113 102.303,69.113 C103.363,69.113 104.128,68.682 104.597,67.818 C104.967,67.152 105.152,66.252 105.152,65.117 L105.152,61.528 ZM91.611,55.497 C90.797,55.423 89.933,55.386 89.021,55.386 L89.021,71.222 C88.675,71.222 88.194,71.185 87.578,71.111 C86.961,71.037 86.591,71.000 86.468,71.000 C86.098,71.000 85.604,71.037 84.988,71.111 C84.371,71.185 84.013,71.222 83.915,71.222 L83.915,55.386 C82.755,55.386 81.959,55.404 81.528,55.441 C81.096,55.478 80.190,55.584 78.809,55.756 C78.932,55.386 78.994,54.955 78.994,54.461 C78.994,54.091 78.932,53.684 78.809,53.240 L94.164,53.240 C94.040,53.684 93.979,54.091 93.979,54.461 C93.979,54.905 94.040,55.337 94.164,55.756 C93.276,55.658 92.425,55.571 91.611,55.497 ZM84.267,75.740 L84.267,83.000 L83.043,83.000 L83.043,76.759 L79.782,76.759 L79.782,80.375 C79.782,81.218 79.755,81.774 79.700,82.043 C79.646,82.312 79.495,82.547 79.249,82.747 C79.003,82.948 78.647,83.048 78.183,83.048 C77.896,83.048 77.565,83.030 77.191,82.993 L77.191,81.968 L77.731,81.968 C77.987,81.968 78.169,81.942 78.278,81.889 C78.388,81.837 78.461,81.754 78.497,81.640 C78.533,81.526 78.552,81.154 78.552,80.525 L78.552,75.740 L84.267,75.740 ZM70.040,71.000 L63.269,71.000 L63.269,53.240 C64.255,53.364 65.119,53.425 65.859,53.425 C66.599,53.425 67.437,53.364 68.375,53.240 L68.375,60.714 L71.409,60.714 C75.725,60.714 77.884,62.219 77.884,65.228 C77.884,67.399 77.070,68.953 75.442,69.890 C74.159,70.630 72.358,71.000 70.040,71.000 ZM71.909,63.433 C71.452,62.878 70.866,62.601 70.151,62.601 L68.375,62.601 L68.375,69.076 C68.695,69.076 68.986,69.070 69.245,69.058 C69.504,69.045 69.842,69.002 70.262,68.928 C71.076,68.706 71.668,68.312 72.038,67.744 C72.408,67.177 72.593,66.486 72.593,65.672 C72.593,64.735 72.365,63.989 71.909,63.433 ZM63.536,72.979 L64.766,72.979 L64.766,76.444 C65.022,76.153 65.302,75.935 65.607,75.792 C65.912,75.648 66.241,75.576 66.592,75.576 C67.453,75.576 68.135,75.935 68.639,76.653 C69.142,77.371 69.394,78.274 69.394,79.363 C69.394,80.498 69.123,81.415 68.581,82.115 C68.038,82.814 67.364,83.164 66.557,83.164 C66.293,83.164 66.024,83.123 65.751,83.041 C65.477,82.959 65.149,82.736 64.766,82.371 L64.766,85.782 L63.536,85.782 L63.536,82.371 C63.290,82.635 63.017,82.834 62.719,82.966 C62.421,83.098 62.098,83.164 61.752,83.164 C60.991,83.164 60.325,82.830 59.756,82.163 C59.186,81.495 58.901,80.539 58.901,79.295 C58.901,78.242 59.159,77.359 59.674,76.646 C60.189,75.933 60.881,75.576 61.752,75.576 C62.116,75.576 62.447,75.648 62.743,75.792 C63.039,75.935 63.304,76.153 63.536,76.444 L63.536,72.979 ZM65.211,81.602 C65.512,81.978 65.887,82.166 66.339,82.166 C66.840,82.166 67.267,81.935 67.620,81.472 C67.974,81.010 68.150,80.291 68.150,79.315 C68.150,78.395 67.987,77.709 67.661,77.258 C67.336,76.807 66.917,76.581 66.407,76.581 C65.860,76.581 65.449,76.816 65.173,77.285 C64.897,77.755 64.760,78.459 64.760,79.397 C64.760,80.491 64.910,81.226 65.211,81.602 ZM63.126,77.306 C62.848,76.827 62.429,76.588 61.868,76.588 C61.362,76.588 60.950,76.821 60.631,77.289 C60.312,77.756 60.152,78.413 60.152,79.261 C60.152,80.286 60.324,81.024 60.668,81.476 C61.012,81.927 61.440,82.152 61.950,82.152 C62.483,82.152 62.882,81.928 63.146,81.479 C63.411,81.030 63.543,80.357 63.543,79.459 C63.543,78.502 63.404,77.784 63.126,77.306 ZM58.534,71.000 C58.114,71.000 57.565,71.035 56.887,71.106 C56.208,71.177 55.820,71.213 55.722,71.213 C55.228,69.507 54.575,67.517 53.761,65.242 C53.169,63.610 52.416,61.620 51.504,59.271 C49.999,63.252 48.494,67.232 46.990,71.213 L45.473,71.000 L44.030,71.213 C45.214,68.628 46.551,65.583 48.044,62.078 C49.536,58.573 50.751,55.590 51.689,53.129 L52.947,53.277 L54.205,53.129 C55.290,56.001 56.467,59.046 57.738,62.264 C59.008,65.482 60.223,68.465 61.383,71.213 C60.963,71.213 60.618,71.198 60.347,71.170 C59.261,71.057 58.657,71.000 58.534,71.000 ZM33.596,67.115 C34.533,68.447 35.951,69.113 37.851,69.113 C38.615,69.113 39.368,68.965 40.108,68.669 C40.848,68.373 41.538,67.966 42.180,67.448 L42.587,67.781 L41.810,69.853 C40.231,70.963 38.467,71.518 36.519,71.518 C33.460,71.518 31.085,70.661 29.396,68.947 C27.706,67.232 26.862,64.846 26.862,61.787 C26.862,59.123 27.639,56.977 29.193,55.349 C30.747,53.721 32.856,52.907 35.520,52.907 C38.258,52.907 40.280,53.795 41.588,55.571 C42.722,57.125 43.290,59.345 43.290,62.231 L32.338,62.231 C32.338,64.303 32.757,65.931 33.596,67.115 ZM38.184,60.455 C38.184,59.025 38.023,57.791 37.703,56.755 C37.234,55.275 36.519,54.535 35.557,54.535 C34.373,54.535 33.497,55.275 32.930,56.755 C32.535,57.791 32.338,59.025 32.338,60.455 L38.184,60.455 ZM24.716,72.665 C24.148,71.974 23.329,71.524 22.256,71.315 C21.183,71.105 19.980,71.000 18.648,71.000 L7.622,71.000 C5.969,71.000 4.797,71.061 4.107,71.185 C2.849,71.407 1.911,71.900 1.295,72.665 L0.740,72.665 C0.789,72.443 0.833,72.097 0.869,71.629 C0.906,71.160 0.925,70.717 0.925,70.297 C0.925,69.878 0.912,69.557 0.888,69.335 C0.863,69.113 0.814,68.780 0.740,68.336 L2.331,68.336 C3.095,66.585 4.119,64.180 5.402,61.121 C5.969,59.789 6.993,57.286 8.473,53.610 C10.199,49.343 11.272,46.679 11.692,45.618 L13.098,45.729 L14.504,45.618 L23.680,68.336 L25.271,68.336 C25.123,68.928 25.049,69.582 25.049,70.297 C25.049,71.061 25.123,71.851 25.271,72.665 L24.716,72.665 ZM15.799,63.304 C14.886,60.887 14.245,59.197 13.875,58.235 C13.135,56.410 12.407,54.572 11.692,52.722 C10.384,55.806 9.213,58.618 8.177,61.158 C6.968,64.168 6.068,66.523 5.476,68.225 C6.512,68.225 7.868,68.243 9.546,68.280 C11.223,68.317 12.123,68.336 12.247,68.336 L13.838,68.336 L14.393,68.336 L14.874,68.336 C15.959,68.336 16.859,68.299 17.575,68.225 C17.032,66.647 16.440,65.006 15.799,63.304 ZM4.778,81.551 L6.897,75.740 L8.668,75.740 L8.668,83.000 L7.437,83.000 L7.437,77.155 L5.291,83.000 L4.190,83.000 L2.160,76.875 L2.160,83.000 L0.957,83.000 L0.957,75.740 L2.871,75.740 L4.778,81.551 ZM11.435,78.762 L14.846,78.762 L14.846,75.740 L16.077,75.740 L16.077,83.000 L14.846,83.000 L14.846,79.780 L11.435,79.780 L11.435,83.000 L10.205,83.000 L10.205,75.740 L11.435,75.740 L11.435,78.762 ZM20.526,75.576 C21.524,75.576 22.339,75.903 22.973,76.557 C23.606,77.211 23.923,78.115 23.923,79.268 C23.923,80.202 23.783,80.937 23.503,81.472 C23.222,82.008 22.814,82.424 22.279,82.720 C21.743,83.016 21.159,83.164 20.526,83.164 C19.509,83.164 18.688,82.838 18.061,82.187 C17.435,81.535 17.121,80.596 17.121,79.370 C17.121,78.026 17.495,77.030 18.242,76.383 C18.867,75.845 19.628,75.576 20.526,75.576 ZM18.994,81.458 C19.400,81.921 19.910,82.152 20.526,82.152 C21.136,82.152 21.644,81.920 22.050,81.455 C22.456,80.990 22.658,80.282 22.658,79.329 C22.658,78.431 22.454,77.751 22.047,77.289 C21.639,76.826 21.132,76.595 20.526,76.595 C19.910,76.595 19.400,76.825 18.994,77.285 C18.589,77.746 18.386,78.440 18.386,79.370 C18.386,80.300 18.589,80.996 18.994,81.458 ZM29.199,76.759 L26.253,76.759 L26.253,83.000 L25.022,83.000 L25.022,75.740 L29.199,75.740 L29.199,76.759 ZM32.718,75.576 C33.716,75.576 34.532,75.903 35.165,76.557 C35.799,77.211 36.116,78.115 36.116,79.268 C36.116,80.202 35.975,80.937 35.695,81.472 C35.415,82.008 35.007,82.424 34.472,82.720 C33.936,83.016 33.352,83.164 32.718,83.164 C31.702,83.164 30.880,82.838 30.254,82.187 C29.627,81.535 29.314,80.596 29.314,79.370 C29.314,78.026 29.687,77.030 30.435,76.383 C31.059,75.845 31.820,75.576 32.718,75.576 ZM31.187,81.458 C31.592,81.921 32.103,82.152 32.718,82.152 C33.329,82.152 33.837,81.920 34.243,81.455 C34.648,80.990 34.851,80.282 34.851,79.329 C34.851,78.431 34.647,77.751 34.239,77.289 C33.831,76.826 33.324,76.595 32.718,76.595 C32.103,76.595 31.592,76.825 31.187,77.285 C30.781,77.746 30.579,78.440 30.579,79.370 C30.579,80.300 30.781,80.996 31.187,81.458 ZM42.943,83.000 L41.713,83.000 L41.713,76.759 L38.445,76.759 L38.445,83.000 L37.215,83.000 L37.215,75.740 L42.943,75.740 L42.943,83.000 ZM45.560,76.684 C45.824,76.314 46.123,76.038 46.456,75.853 C46.788,75.668 47.192,75.576 47.666,75.576 C48.285,75.576 48.832,75.736 49.306,76.055 C49.780,76.374 50.138,76.824 50.380,77.405 C50.621,77.986 50.742,78.623 50.742,79.315 C50.742,80.058 50.609,80.727 50.342,81.322 C50.075,81.917 49.688,82.372 49.180,82.689 C48.672,83.006 48.137,83.164 47.577,83.164 C47.167,83.164 46.799,83.077 46.473,82.904 C46.147,82.731 45.879,82.512 45.670,82.248 L45.670,85.782 L44.439,85.782 L44.439,75.740 L45.560,75.740 L45.560,76.684 ZM46.121,81.482 C46.499,81.929 46.957,82.152 47.495,82.152 C48.042,82.152 48.510,81.921 48.900,81.458 C49.289,80.996 49.484,80.279 49.484,79.309 C49.484,78.383 49.294,77.691 48.913,77.230 C48.533,76.770 48.078,76.540 47.549,76.540 C47.025,76.540 46.562,76.785 46.158,77.275 C45.755,77.765 45.553,78.477 45.553,79.411 C45.553,80.345 45.742,81.036 46.121,81.482 ZM54.821,75.576 C55.820,75.576 56.635,75.903 57.269,76.557 C57.902,77.211 58.219,78.115 58.219,79.268 C58.219,80.202 58.079,80.937 57.799,81.472 C57.518,82.008 57.110,82.424 56.575,82.720 C56.039,83.016 55.455,83.164 54.821,83.164 C53.805,83.164 52.984,82.838 52.357,82.187 C51.730,81.535 51.417,80.596 51.417,79.370 C51.417,78.026 51.791,77.030 52.538,76.383 C53.163,75.845 53.924,75.576 54.821,75.576 ZM53.290,81.458 C53.696,81.921 54.206,82.152 54.821,82.152 C55.432,82.152 55.940,81.920 56.346,81.455 C56.751,80.990 56.954,80.282 56.954,79.329 C56.954,78.431 56.750,77.751 56.342,77.289 C55.935,76.826 55.428,76.595 54.821,76.595 C54.206,76.595 53.696,76.825 53.290,77.285 C52.885,77.746 52.682,78.440 52.682,79.370 C52.682,80.300 52.885,80.996 53.290,81.458 ZM71.710,81.277 L75.121,75.740 L76.448,75.740 L76.448,83.000 L75.217,83.000 L75.217,77.497 L71.806,83.000 L70.480,83.000 L70.480,75.740 L71.710,75.740 L71.710,81.277 ZM86.979,78.577 L88.538,78.577 C89.554,78.577 90.337,78.774 90.886,79.168 C91.435,79.563 91.710,80.106 91.710,80.799 C91.710,81.405 91.481,81.923 91.023,82.354 C90.565,82.785 89.832,83.000 88.825,83.000 L85.749,83.000 L85.749,75.740 L86.979,75.740 L86.979,78.577 ZM86.979,81.988 L88.271,81.988 C89.050,81.988 89.606,81.893 89.939,81.701 C90.272,81.510 90.438,81.211 90.438,80.806 C90.438,80.491 90.315,80.211 90.069,79.965 C89.823,79.719 89.278,79.596 88.435,79.596 L86.979,79.596 L86.979,81.988 ZM93.950,78.762 L97.362,78.762 L97.362,75.740 L98.592,75.740 L98.592,83.000 L97.362,83.000 L97.362,79.780 L93.950,79.780 L93.950,83.000 L92.720,83.000 L92.720,75.740 L93.950,75.740 L93.950,78.762 ZM101.352,78.577 L102.911,78.577 C103.927,78.577 104.710,78.774 105.259,79.168 C105.808,79.563 106.083,80.106 106.083,80.799 C106.083,81.405 105.854,81.923 105.396,82.354 C104.938,82.785 104.205,83.000 103.198,83.000 L100.122,83.000 L100.122,75.740 L101.352,75.740 L101.352,78.577 ZM101.352,81.988 L102.644,81.988 C103.424,81.988 103.980,81.893 104.312,81.701 C104.645,81.510 104.811,81.211 104.811,80.806 C104.811,80.491 104.688,80.211 104.442,79.965 C104.196,79.719 103.651,79.596 102.808,79.596 L101.352,79.596 L101.352,81.988 ZM108.236,83.000 L107.006,83.000 L107.006,75.740 L108.236,75.740 L108.236,83.000 ZM133.072,75.576 C134.043,75.576 134.836,75.907 135.451,76.567 C136.067,77.228 136.374,78.158 136.374,79.356 C136.374,79.429 136.372,79.539 136.367,79.685 L130.953,79.685 C130.999,80.482 131.224,81.093 131.630,81.517 C132.036,81.940 132.542,82.152 133.148,82.152 C133.599,82.152 133.984,82.034 134.303,81.797 C134.622,81.560 134.875,81.182 135.062,80.662 L136.333,80.819 C136.133,81.562 135.761,82.139 135.219,82.549 C134.677,82.959 133.984,83.164 133.141,83.164 C132.079,83.164 131.237,82.837 130.615,82.183 C129.993,81.529 129.682,80.612 129.682,79.432 C129.682,78.210 129.996,77.262 130.625,76.588 C131.254,75.913 132.070,75.576 133.072,75.576 ZM135.075,78.673 C135.021,78.062 134.866,77.604 134.611,77.299 C134.219,76.825 133.710,76.588 133.086,76.588 C132.521,76.588 132.046,76.777 131.661,77.155 C131.276,77.534 131.063,78.039 131.022,78.673 L135.075,78.673 ZM138.499,75.740 L143.557,75.740 L143.557,81.988 L144.344,81.988 L144.344,85.058 L143.332,85.058 L143.332,83.000 L137.617,83.000 L137.617,85.058 L136.605,85.058 L136.605,81.988 L137.255,81.988 C138.120,80.813 138.535,78.730 138.499,75.740 ZM142.334,81.988 L142.334,76.759 L139.524,76.759 C139.433,79.115 139.068,80.858 138.430,81.988 L142.334,81.988 ZM154.068,81.988 L157.473,81.988 L157.473,75.740 L158.703,75.740 L158.703,81.988 L159.496,81.988 L159.496,85.058 L158.484,85.058 L158.484,83.000 L152.838,83.000 L152.838,75.740 L154.068,75.740 L154.068,81.988 ZM161.716,81.277 L165.128,75.740 L166.454,75.740 L166.454,83.000 L165.223,83.000 L165.223,77.497 L161.812,83.000 L160.486,83.000 L160.486,75.740 L161.716,75.740 L161.716,81.277 ZM169.194,78.762 L172.605,78.762 L172.605,75.740 L173.835,75.740 L173.835,83.000 L172.605,83.000 L172.605,79.780 L169.194,79.780 L169.194,83.000 L167.963,83.000 L167.963,75.740 L169.194,75.740 L169.194,78.762 ZM188.993,81.277 L192.404,75.740 L193.730,75.740 L193.730,83.000 L192.500,83.000 L192.500,77.497 L189.089,83.000 L187.763,83.000 L187.763,75.740 L188.993,75.740 L188.993,81.277 ZM198.330,74.763 C197.746,74.763 197.280,74.611 196.932,74.308 C196.583,74.005 196.375,73.566 196.306,72.992 L197.147,72.992 C197.211,73.302 197.337,73.533 197.526,73.686 C197.716,73.839 197.970,73.915 198.289,73.915 C198.658,73.915 198.937,73.841 199.126,73.693 C199.315,73.545 199.442,73.311 199.505,72.992 L200.346,72.992 C200.278,73.562 200.069,73.999 199.721,74.305 C199.372,74.610 198.908,74.763 198.330,74.763 ZM196.463,81.277 L199.875,75.740 L201.201,75.740 L201.201,83.000 L199.970,83.000 L199.970,77.497 L196.559,83.000 L195.233,83.000 L195.233,75.740 L196.463,75.740 L196.463,81.277 ZM207.494,81.988 L210.898,81.988 L210.898,75.740 L212.129,75.740 L212.129,81.988 L212.922,81.988 L212.922,85.058 L211.910,85.058 L211.910,83.000 L206.263,83.000 L206.263,75.740 L207.494,75.740 L207.494,81.988 ZM216.892,75.576 C217.863,75.576 218.656,75.907 219.271,76.567 C219.886,77.228 220.194,78.158 220.194,79.356 C220.194,79.429 220.191,79.539 220.187,79.685 L214.773,79.685 C214.818,80.482 215.044,81.093 215.450,81.517 C215.855,81.940 216.361,82.152 216.967,82.152 C217.418,82.152 217.803,82.034 218.122,81.797 C218.441,81.560 218.694,81.182 218.881,80.662 L220.153,80.819 C219.952,81.562 219.581,82.139 219.038,82.549 C218.496,82.959 217.803,83.164 216.960,83.164 C215.898,83.164 215.057,82.837 214.434,82.183 C213.812,81.529 213.501,80.612 213.501,79.432 C213.501,78.210 213.816,77.262 214.445,76.588 C215.074,75.913 215.889,75.576 216.892,75.576 ZM218.895,78.673 C218.840,78.062 218.685,77.604 218.430,77.299 C218.038,76.825 217.530,76.588 216.906,76.588 C216.341,76.588 215.865,76.777 215.480,77.155 C215.095,77.534 214.882,78.039 214.841,78.673 L218.895,78.673 ZM233.965,76.759 L231.628,76.759 L231.628,83.000 L230.404,83.000 L230.404,76.759 L228.066,76.759 L228.066,75.740 L233.965,75.740 L233.965,76.759 ZM235.912,76.684 C236.177,76.314 236.475,76.038 236.808,75.853 C237.140,75.668 237.544,75.576 238.018,75.576 C238.637,75.576 239.184,75.736 239.658,76.055 C240.132,76.374 240.490,76.824 240.732,77.405 C240.973,77.986 241.094,78.623 241.094,79.315 C241.094,80.058 240.961,80.727 240.694,81.322 C240.427,81.917 240.040,82.372 239.532,82.689 C239.024,83.006 238.489,83.164 237.929,83.164 C237.519,83.164 237.151,83.077 236.825,82.904 C236.499,82.731 236.231,82.512 236.022,82.248 L236.022,85.782 L234.791,85.782 L234.791,75.740 L235.912,75.740 L235.912,76.684 ZM236.473,81.482 C236.851,81.929 237.309,82.152 237.847,82.152 C238.394,82.152 238.862,81.921 239.252,81.458 C239.641,80.996 239.836,80.279 239.836,79.309 C239.836,78.383 239.646,77.691 239.265,77.230 C238.885,76.770 238.430,76.540 237.902,76.540 C237.377,76.540 236.914,76.785 236.510,77.275 C236.107,77.765 235.905,78.477 235.905,79.411 C235.905,80.345 236.095,81.036 236.473,81.482 Z"/>
	<path fill-rule="evenodd" fill="rgb(244, 86, 65)" d="M179.007,20.071 C178.680,20.034 178.366,20.001 178.067,19.973 C177.767,19.946 177.448,19.932 177.112,19.932 L177.112,25.897 C176.985,25.897 176.808,25.883 176.581,25.855 C176.353,25.827 176.217,25.813 176.172,25.813 C176.035,25.813 175.853,25.827 175.626,25.855 C175.399,25.883 175.267,25.897 175.231,25.897 L175.231,19.932 C174.804,19.932 174.511,19.939 174.352,19.952 C174.193,19.966 173.859,20.006 173.350,20.071 C173.395,19.932 173.418,19.769 173.418,19.583 C173.418,19.444 173.395,19.290 173.350,19.123 L179.007,19.123 C178.962,19.290 178.939,19.444 178.939,19.583 C178.939,19.750 178.962,19.913 179.007,20.071 ZM169.396,24.350 C169.742,24.852 170.264,25.103 170.964,25.103 C171.246,25.103 171.523,25.047 171.796,24.935 C172.068,24.824 172.323,24.670 172.559,24.475 L172.709,24.601 L172.423,25.381 C171.841,25.799 171.191,26.008 170.473,26.008 C169.346,26.008 168.472,25.686 167.849,25.040 C167.227,24.394 166.915,23.495 166.915,22.343 C166.915,21.339 167.202,20.531 167.774,19.918 C168.347,19.304 169.124,18.998 170.105,18.998 C171.114,18.998 171.859,19.332 172.341,20.001 C172.759,20.587 172.968,21.423 172.968,22.510 L168.933,22.510 C168.933,23.291 169.087,23.904 169.396,24.350 ZM171.087,21.841 C171.087,21.302 171.028,20.838 170.910,20.447 C170.737,19.890 170.473,19.611 170.119,19.611 C169.683,19.611 169.360,19.890 169.151,20.447 C169.006,20.838 168.933,21.302 168.933,21.841 L171.087,21.841 ZM165.348,25.813 C165.193,25.813 164.991,25.827 164.741,25.853 C164.491,25.880 164.348,25.893 164.312,25.893 C164.130,25.251 163.889,24.501 163.589,23.644 C163.371,23.030 163.094,22.280 162.758,21.395 C162.203,22.895 161.649,24.394 161.095,25.893 L160.536,25.813 L160.004,25.893 C160.440,24.920 160.933,23.773 161.483,22.452 C162.033,21.132 162.480,20.008 162.826,19.081 L163.289,19.137 L163.753,19.081 C164.153,20.163 164.587,21.310 165.055,22.522 C165.523,23.735 165.970,24.858 166.398,25.893 C166.243,25.893 166.116,25.888 166.016,25.877 C165.616,25.835 165.393,25.813 165.348,25.813 ZM150.880,37.400 C148.320,40.361 145.039,41.840 141.040,41.840 C138.439,41.840 136.240,41.339 134.440,40.340 C132.640,39.341 131.119,37.760 129.880,35.600 C128.640,33.440 127.800,31.230 127.360,28.970 C126.919,26.711 126.700,24.161 126.700,21.320 C126.700,18.800 126.919,16.280 127.360,13.760 C127.800,11.240 128.539,9.120 129.580,7.400 C132.220,3.000 136.099,0.800 141.220,0.800 C146.340,0.800 150.079,2.820 152.440,6.860 C154.360,10.140 155.320,14.520 155.320,20.000 C155.320,24.920 154.939,28.620 154.180,31.100 C153.420,33.581 152.320,35.681 150.880,37.400 ZM145.330,7.400 C144.589,4.800 143.220,3.500 141.220,3.500 C139.020,3.500 137.530,4.980 136.750,7.940 C135.970,10.901 135.580,15.600 135.580,22.040 C135.580,28.320 135.859,32.540 136.420,34.700 C137.179,37.661 138.739,39.140 141.100,39.140 C143.179,39.140 144.619,37.580 145.420,34.460 C146.100,31.820 146.440,27.401 146.440,21.200 C146.440,14.600 146.070,10.001 145.330,7.400 ZM120.220,41.000 L93.760,41.000 L93.760,38.420 C97.372,35.060 99.921,32.580 101.406,30.980 C104.416,27.780 106.724,24.800 108.330,22.040 C110.336,18.560 111.340,15.240 111.340,12.080 C111.340,9.761 110.839,7.820 109.840,6.260 C108.640,4.421 106.920,3.500 104.680,3.500 C102.799,3.500 101.340,4.520 100.300,6.560 C99.460,8.240 99.040,10.140 99.040,12.260 L98.440,12.380 C97.000,10.620 95.440,9.300 93.760,8.420 C94.720,5.861 96.330,3.950 98.590,2.690 C100.849,1.430 103.440,0.800 106.360,0.800 C110.320,0.800 113.520,1.620 115.960,3.260 C118.800,5.180 120.220,8.040 120.220,11.840 C120.220,14.600 119.479,17.040 118.000,19.160 C117.160,20.400 116.100,21.660 114.820,22.940 C114.379,23.381 113.640,24.041 112.600,24.920 C110.680,26.561 108.760,28.241 106.840,29.960 C105.240,31.400 104.020,32.540 103.180,33.380 L103.240,33.680 L110.920,33.680 C111.919,33.680 113.460,33.600 115.540,33.440 C117.619,33.281 119.179,33.200 120.220,33.200 C120.139,34.080 120.070,34.841 120.010,35.480 C119.950,36.120 119.920,36.660 119.920,37.100 C119.920,37.940 119.950,38.640 120.010,39.200 C120.070,39.761 120.139,40.361 120.220,41.000 ZM120.000,58.000 L119.896,58.000 C117.096,52.433 112.567,47.904 107.000,45.104 L107.000,45.000 L120.000,45.000 L120.000,58.000 Z"/>
</svg>