<?xml version="1.0" encoding="UTF-8"?>
<svg style="enable-background:new 0 0 512 512" version="1.1" viewBox="0 0 512 512" xml:space="preserve" xmlns="http://www.w3.org/2000/svg" xmlns:xlink="http://www.w3.org/1999/xlink">
    <title>VISA</title>
    <desc>created with tarantul web development</desc>
	<style type="text/css">
		.st1 {fill-rule:evenodd;clip-rule:evenodd;fill:#F6AB1B;}
		.st2 {fill-rule:evenodd;clip-rule:evenodd;fill:#005696;}
	</style>
	<g>
		<!--path class="st0" d="M489.2,94.5H21.9c-9.1,0-14.8,1.4-17.9,4.3c-2.7,3.3-4,8.7-4,16.7v29.9v24.1v172.3V367v28.8   c0,14.3,7.4,21.7,21.9,21.7h467.3c15.2,0,22.8-7.4,22.8-21.7V367v-25.2V169.4v-24.1v-29.9C512,101.3,504.4,94.5,489.2,94.5z"/-->
		<g transform="translate(-80, -50) scale(1.2, 1.2)">
			<path class="st1" d="M97.9,358c75.5-32.4,181.4-61.7,321.7-32.3l1.5-35.6c-148-16.2-254.2,31-323.2,64.4V358L97.9,358z"/>
			<polygon class="st2" points="176.8,264.2 209.5,156.3 238.7,156.3 206,264.2 176.8,264.2   "/>
			<path class="st2" d="M163.8,156.4l-26.3,45.7c-6.7,12-10.6,18-12.5,25.6h-0.4c0.5-9.6-0.9-21.4-1-28l-2.9-43.3H71.6l-0.5,2.9    c12.6,0,20.1,6.3,22.2,19.3l9.6,85.6h30.2l61.2-107.9H163.8L163.8,156.4z"/>
			<path class="st2" d="M390.8,264.2l-0.8-16l-36.5,0l-7.5,16.1h-31.7l57.5-107.7h38.9l9.7,107.7H390.8L390.8,264.2z M387.5,200.6    c-0.3-8-0.6-18.8-0.1-25.3H387c-1.8,5.4-9.4,21.4-12.8,29.4l-10.9,23.6h25.6L387.5,200.6L387.5,200.6z"/>
			<path class="st2" d="M269.4,267.3c-20.6,0-34.3-6.5-44.1-12.4l13.9-21.2c8.8,4.9,15.6,10.6,31.5,10.6c5.1,0,10-1.3,12.8-6.1    c4.1-7-0.9-10.8-12.3-17.2l-5.6-3.7c-16.9-11.6-24.2-22.5-16.3-41.7c5.1-12.3,18.5-21.5,40.7-21.5c15.3,0,29.6,6.6,38,13.1    l-16,18.8c-8.2-6.6-14.9-9.9-22.6-9.9c-6.2,0-10.8,2.4-12.5,5.6c-3,6,1,10.1,9.9,15.6l6.7,4.3c20.5,12.9,25.4,26.5,20.3,39.2    C304.8,262.4,287.5,267.3,269.4,267.3L269.4,267.3z"/>
			<path class="st2" d="M428.5,173h-1.9v-11.7h4.4c2.8,0,4.3,1,4.3,3.4c0,2.1-1.3,3-3,3.2l3.3,5.1h-2.2l-3-5h-1.8V173L428.5,173z     M430.6,166.4c1.4,0,2.7-0.1,2.7-1.8c0-1.4-1.4-1.6-2.5-1.6h-2.3v3.4H430.6L430.6,166.4z M430.6,177.5c-6.1,0-10.4-4.5-10.4-10.6    c0-6.4,4.8-10.6,10.4-10.6c5.5,0,10.3,4.2,10.3,10.6C440.9,173.3,436.1,177.5,430.6,177.5L430.6,177.5z M430.6,158.2    c-4.6,0-8.1,3.6-8.1,8.7c0,4.8,3.1,8.7,8.1,8.7c4.5,0,8.1-3.6,8.1-8.7C438.7,161.8,435.1,158.2,430.6,158.2L430.6,158.2z"/>
		</g>
	</g>
</svg>